<?xml version="1.0" encoding="UTF-8" standalone="no"?>
<!DOCTYPE svg PUBLIC "-//W3C//DTD SVG 1.1//EN" "http://www.w3.org/Graphics/SVG/1.1/DTD/svg11.dtd">
<svg width="100%" height="100%" viewBox="0 0 32 24" version="1.1" xmlns="http://www.w3.org/2000/svg" xmlns:xlink="http://www.w3.org/1999/xlink" xml:space="preserve" xmlns:serif="http://www.serif.com/" style="fill-rule:evenodd;clip-rule:evenodd;stroke-linejoin:round;stroke-miterlimit:2;">
    <g transform="matrix(1,0,0,1,-1122.85,-1991.29)">
        <g transform="matrix(1,0,0,1,2392.33,3727.95)">
            <g transform="matrix(0.0625001,0,0,0.0625001,-1166.45,-1606.96)">
                <g transform="matrix(1,0,0,1,-1648.48,-2141.21)">
                    <path d="M322.285,401.644C314.843,401.644 308.386,396.113 307.421,388.539C306.378,380.32 312.191,372.812 320.406,371.765C367.804,365.726 410.249,352.883 439.921,335.594C467.058,319.785 481.999,301.199 481.999,283.262C481.999,263.492 464.515,247.316 449.843,237.223C443.019,232.527 441.292,223.191 445.987,216.363C450.683,209.539 460.023,207.813 466.847,212.508C496.386,232.828 511.999,257.293 511.999,283.266C511.999,312.742 492.3,339.801 455.026,361.515C421.476,381.062 376.238,394.898 324.199,401.527C323.554,401.605 322.913,401.644 322.285,401.644Z" style="fill:rgb(26,28,32);fill-rule:nonzero;"/>
                </g>
                <g transform="matrix(1,0,0,1,-1648.48,-2141.21)">
                    <path d="M252.343,380.156L212.343,340.156C206.484,334.297 196.988,334.297 191.129,340.156C185.273,346.012 185.273,355.512 191.129,361.367L202.816,373.054C158.004,368.426 117.293,357.992 85.769,342.832C50.328,325.789 30,304.074 30,283.262C30,265.609 44.555,247.262 70.98,231.598C78.109,227.375 80.461,218.172 76.238,211.047C72.012,203.918 62.808,201.567 55.683,205.789C9.66,233.07 0,262.977 0,283.262C0,316.543 25.844,347.301 72.769,369.871C109.191,387.383 156.304,399.113 207.632,403.652L191.129,420.156C185.273,426.011 185.273,435.511 191.129,441.371C194.058,444.297 197.898,445.761 201.738,445.761C205.574,445.761 209.414,444.297 212.343,441.371L252.343,401.371C258.199,395.511 258.199,386.011 252.343,380.156Z" style="fill:rgb(26,28,32);fill-rule:nonzero;"/>
                </g>
                <g transform="matrix(1,0,0,1,-1648.48,-2141.21)">
                    <path d="M157.097,253.223L157.097,249.613C157.097,236.883 149.304,234.414 138.855,234.414C132.394,234.414 130.304,228.715 130.304,223.016C130.304,217.313 132.394,211.613 138.855,211.613C146.074,211.613 153.675,210.664 153.675,195.274C153.675,184.254 147.406,181.594 139.613,181.594C130.304,181.594 125.554,183.875 125.554,191.285C125.554,197.742 122.703,202.113 111.683,202.113C98.004,202.113 96.297,199.262 96.297,190.141C96.297,175.324 106.933,156.133 139.613,156.133C163.746,156.133 181.984,164.871 181.984,190.524C181.984,204.391 176.855,217.313 167.355,221.684C178.566,225.863 186.734,234.223 186.734,249.613L186.734,253.223C186.734,284.383 165.265,296.164 138.664,296.164C105.984,296.164 93.445,276.215 93.445,260.254C93.445,251.703 97.054,249.422 107.504,249.422C119.664,249.422 122.703,252.082 122.703,259.305C122.703,268.234 131.066,270.324 139.613,270.324C152.535,270.324 157.097,265.574 157.097,253.223Z" style="fill:rgb(26,28,32);fill-rule:nonzero;"/>
                </g>
                <g transform="matrix(1,0,0,1,-1648.48,-2141.21)">
                    <path d="M302.066,249.613L302.066,251.324C302.066,284.004 281.734,296.164 255.515,296.164C229.296,296.164 208.773,284.004 208.773,251.324L208.773,200.973C208.773,168.293 229.863,156.133 257.226,156.133C289.335,156.133 302.066,176.082 302.066,191.852C302.066,200.973 297.695,203.82 288.195,203.82C280.027,203.82 272.804,201.731 272.804,192.992C272.804,185.774 265.207,181.973 256.277,181.973C245.066,181.973 238.414,187.863 238.414,200.973L238.414,218.07C244.496,211.422 253.046,209.711 262.167,209.711C283.824,209.711 302.066,219.211 302.066,249.613ZM238.414,253.414C238.414,266.523 244.875,272.223 255.515,272.223C266.156,272.223 272.425,266.523 272.425,253.414L272.425,251.703C272.425,237.832 266.156,232.512 255.324,232.512C245.066,232.512 238.414,237.453 238.414,249.992L238.414,253.414Z" style="fill:rgb(26,28,32);fill-rule:nonzero;"/>
                </g>
                <g transform="matrix(1,0,0,1,-1648.48,-2141.21)">
                    <path d="M325.054,251.324L325.054,200.973C325.054,168.293 345.382,156.133 371.605,156.133C397.823,156.133 418.343,168.293 418.343,200.973L418.343,251.324C418.343,284.004 397.823,296.164 371.605,296.164C345.382,296.164 325.054,284.004 325.054,251.324ZM388.702,200.973C388.702,187.863 382.245,181.973 371.605,181.973C360.964,181.973 354.695,187.863 354.695,200.973L354.695,251.324C354.695,264.434 360.964,270.324 371.605,270.324C382.245,270.324 388.702,264.434 388.702,251.324L388.702,200.973Z" style="fill:rgb(26,28,32);fill-rule:nonzero;"/>
                </g>
                <g transform="matrix(1,0,0,1,-1648.48,-2141.21)">
                    <path d="M454.351,156C429.534,156 409.351,135.813 409.351,111C409.351,86.188 429.534,66 454.351,66C479.163,66 499.351,86.188 499.351,111C499.351,135.813 479.163,156 454.351,156ZM454.351,96C446.077,96 439.351,102.731 439.351,111C439.351,119.274 446.077,126 454.351,126C462.62,126 469.351,119.274 469.351,111C469.351,102.731 462.62,96 454.351,96Z" style="fill:rgb(26,28,32);fill-rule:nonzero;"/>
                </g>
            </g>
        </g>
    </g>
</svg>
