<?xml version="1.0" encoding="UTF-8" standalone="no"?>
<!DOCTYPE svg PUBLIC "-//W3C//DTD SVG 1.1//EN" "http://www.w3.org/Graphics/SVG/1.1/DTD/svg11.dtd">
<svg width="100%" height="100%" viewBox="0 0 10 10" version="1.1" xmlns="http://www.w3.org/2000/svg" xmlns:xlink="http://www.w3.org/1999/xlink" xml:space="preserve" xmlns:serif="http://www.serif.com/" style="fill-rule:evenodd;clip-rule:evenodd;stroke-linejoin:round;stroke-miterlimit:2;">
    <g id="圖層-1" serif:id="圖層 1" transform="matrix(0.555556,0,0,0.555556,-1.77636e-15,-8.88178e-16)">
        <path d="M13.656,4.344L18,4.344L18,0L13.656,0L13.656,4.344ZM6.827,4.344L11.172,4.344L11.172,0L6.827,0L6.827,4.344ZM0,4.344L4.344,4.344L4.344,0L0,0L0,4.344ZM13.656,11.173L18,11.173L18,6.828L13.656,6.828L13.656,11.173ZM6.827,11.173L11.172,11.173L11.172,6.828L6.827,6.828L6.827,11.173ZM0,11.173L4.344,11.173L4.344,6.828L0,6.828L0,11.173ZM13.656,18L18,18L18,13.656L13.656,13.656L13.656,18ZM6.827,18L11.172,18L11.172,13.656L6.827,13.656L6.827,18ZM0,18L4.344,18L4.344,13.656L0,13.656L0,18Z" style="fill:rgb(35,31,32);fill-rule:nonzero;"/>
    </g>
</svg>
