<?xml version="1.0" encoding="UTF-8" standalone="no"?>
<!DOCTYPE svg PUBLIC "-//W3C//DTD SVG 1.1//EN" "http://www.w3.org/Graphics/SVG/1.1/DTD/svg11.dtd">
<svg width="100%" height="100%" viewBox="0 0 25 26" version="1.1" xmlns="http://www.w3.org/2000/svg" xmlns:xlink="http://www.w3.org/1999/xlink" xml:space="preserve" xmlns:serif="http://www.serif.com/" style="fill-rule:evenodd;clip-rule:evenodd;stroke-linejoin:round;stroke-miterlimit:2;">
    <g transform="matrix(0.068838,0,0,0.068838,-0.00053457,0.0879239)">
        <g id="圖層-1" serif:id="圖層 1">
            <g transform="matrix(1,0,0,1,341.155,152.849)">
                <path d="M0,55.08C0.01,58.776 -0.868,59.838 -4.656,59.795C-22.812,59.585 -40.975,59.55 -59.13,59.812C-63.384,59.873 -63.956,58.301 -63.938,54.652C-63.807,29.667 -63.977,4.679 -63.767,-20.305C-63.73,-24.647 -64.78,-25.942 -69.258,-25.905C-95.744,-25.689 -122.233,-25.798 -148.722,-25.799C-175.21,-25.799 -201.698,-25.887 -228.186,-25.711C-232.435,-25.683 -233.94,-26.632 -233.87,-31.205C-233.594,-49.024 -233.643,-66.851 -233.846,-84.672C-233.891,-88.656 -232.658,-89.746 -228.766,-89.719C-205.777,-89.561 -182.786,-89.704 -159.797,-89.573C-156.531,-89.554 -154.177,-90.567 -151.827,-92.734C-141.18,-102.558 -130.313,-112.146 -119.722,-122.031C-117.294,-124.297 -115.927,-124.057 -113.664,-121.967C-103.023,-112.136 -92.172,-102.532 -81.539,-92.692C-79.166,-90.497 -76.793,-89.561 -73.553,-89.578C-50.73,-89.699 -27.906,-89.569 -5.084,-89.713C-1.361,-89.737 0.027,-88.971 0.014,-84.842C-0.143,-38.202 -0.13,8.439 0,55.08M-233.852,0.578C-233.901,-3.428 -232.677,-4.361 -228.818,-4.351C-182.558,-4.222 -136.297,-4.216 -90.037,-4.361C-86.152,-4.374 -85.348,-3.144 -85.38,0.442C-85.54,18.244 -85.571,36.05 -85.364,53.851C-85.316,57.964 -86.464,59.235 -90.652,59.201C-113.78,59.012 -136.912,59.11 -160.042,59.11C-182.84,59.11 -205.638,59.025 -228.434,59.19C-232.427,59.219 -233.913,58.296 -233.856,53.986C-233.62,36.185 -233.634,18.379 -233.852,0.578M-91.252,144.749C-113.736,144.555 -136.223,144.721 -158.708,144.592C-162.079,144.573 -164.605,145.375 -167.136,147.732C-177.735,157.603 -188.642,167.147 -199.225,177.037C-201.77,179.414 -203.186,179.237 -205.614,176.982C-216.106,167.239 -226.859,157.777 -237.358,148.041C-239.972,145.618 -242.563,144.546 -246.191,144.574C-268.842,144.743 -291.496,144.537 -314.146,144.766C-318.442,144.809 -319.322,143.498 -319.288,139.455C-319.096,116.307 -319.194,93.157 -319.194,70.007C-319.194,46.857 -319.114,23.707 -319.275,0.559C-319.301,-3.152 -318.315,-4.263 -314.532,-4.222C-296.545,-4.025 -278.555,-4.011 -260.568,-4.227C-256.454,-4.277 -255.194,-3.19 -255.227,1.021C-255.416,25.834 -255.196,50.651 -255.432,75.464C-255.475,79.968 -254.162,80.92 -249.853,80.908C-196.887,80.756 -143.92,80.862 -90.954,80.71C-86.61,80.697 -85.279,81.725 -85.346,86.198C-85.606,103.848 -85.647,121.507 -85.325,139.155C-85.236,144.014 -86.94,144.787 -91.252,144.749M22,-106.51C22.009,-110.515 20.857,-111.441 17.008,-111.419C-9.973,-111.257 -36.955,-111.409 -63.936,-111.25C-67.878,-111.226 -70.822,-112.271 -73.713,-114.944C-86.67,-126.928 -99.864,-138.654 -112.815,-150.643C-115.565,-153.189 -117.214,-153.859 -120.385,-150.893C-133.757,-138.383 -147.502,-126.274 -160.983,-113.878C-163.151,-111.886 -165.332,-111.282 -168.142,-111.29C-195.289,-111.363 -222.438,-111.234 -249.585,-111.433C-254.027,-111.465 -255.48,-110.461 -255.435,-105.756C-255.188,-80.945 -255.426,-56.129 -255.221,-31.317C-255.185,-26.941 -256.348,-25.661 -260.786,-25.698C-285.435,-25.909 -310.086,-25.677 -334.733,-25.904C-339.522,-25.949 -341.208,-25.084 -341.153,-19.755C-340.848,10.218 -341.006,40.196 -341.006,70.172C-341.006,100.648 -340.915,131.125 -341.11,161.6C-341.137,165.84 -339.934,166.773 -335.85,166.745C-308.37,166.559 -280.888,166.687 -253.407,166.59C-250.543,166.58 -248.431,167.351 -246.313,169.294C-233.065,181.452 -219.564,193.338 -206.466,205.651C-202.969,208.939 -201.059,208.18 -198.011,205.351C-185.076,193.346 -171.891,181.612 -158.908,169.658C-156.548,167.484 -154.172,166.568 -150.941,166.581C-123.461,166.698 -95.979,166.573 -68.498,166.736C-64.762,166.758 -63.757,165.78 -63.782,162.036C-63.95,137.057 -63.743,112.075 -63.978,87.097C-64.023,82.266 -63.11,80.594 -57.799,80.663C-32.986,80.991 -8.167,80.725 16.648,80.894C20.571,80.921 22.029,80.264 22.017,75.846C21.854,15.06 21.865,-45.725 22,-106.51" style="fill:rgb(43,41,42);fill-rule:nonzero;"/>
            </g>
            <g transform="matrix(-0.99985,-0.0173366,-0.0173366,0.99985,138.768,191.409)">
                <path d="M-0.19,-21.86C-10.996,-22.047 -10.996,-22.047 -11.184,-11.218C-11.375,-0.192 -11.375,-0.192 -0.19,0.002C10.616,0.189 10.616,0.189 10.805,-10.716C10.995,-21.666 10.995,-21.666 -0.19,-21.86" style="fill:rgb(45,42,43);fill-rule:nonzero;"/>
            </g>
            <g transform="matrix(-0.999211,-0.0397252,-0.0397252,0.999211,223.247,191.388)">
                <path d="M-0.434,-21.867C-10.988,-22.286 -10.988,-22.286 -11.408,-11.717C-11.856,-0.445 -11.856,-0.445 -0.434,0.009C10.119,0.428 10.119,0.428 10.542,-10.217C10.987,-21.413 10.987,-21.413 -0.434,-21.867" style="fill:rgb(45,42,43);fill-rule:nonzero;"/>
            </g>
            <g transform="matrix(-0.0190989,0.999818,0.999818,0.0190989,182.171,169.711)">
                <path d="M10.582,-11.198C0.063,-11.399 0.063,-11.399 -0.143,-0.642C-0.349,10.165 -0.349,10.165 10.582,10.374C21.505,10.583 21.505,10.583 21.714,-0.367C21.917,-10.981 21.917,-10.981 10.582,-11.198" style="fill:rgb(45,42,43);fill-rule:nonzero;"/>
            </g>
        </g>
    </g>
</svg>
