<?xml version="1.0" encoding="UTF-8" standalone="no"?>
<!DOCTYPE svg PUBLIC "-//W3C//DTD SVG 1.1//EN" "http://www.w3.org/Graphics/SVG/1.1/DTD/svg11.dtd">
<svg width="100%" height="100%" viewBox="0 0 7 15" version="1.1" xmlns="http://www.w3.org/2000/svg" xmlns:xlink="http://www.w3.org/1999/xlink" xml:space="preserve" xmlns:serif="http://www.serif.com/" style="fill-rule:evenodd;clip-rule:evenodd;stroke-linejoin:round;stroke-miterlimit:2;">
    <g transform="matrix(1,0,0,1,-825.709,-929.337)">
        <g transform="matrix(0.571429,0,0,0.571429,1068.29,-601.317)">
            <g transform="matrix(0.492029,0,0,0.492029,-688.316,2466.38)">
                <path d="M541.339,456.622L541.339,481.587C541.339,481.94 541.625,482.227 541.978,482.227L551.101,482.227C551.454,482.227 551.74,481.94 551.74,481.587L551.74,456.622L558.354,456.622C558.686,456.622 558.963,456.367 558.991,456.036L559.627,448.514C559.659,448.141 559.365,447.82 558.99,447.82L551.74,447.82L551.74,442.484C551.74,441.233 552.754,440.219 554.005,440.219L559.102,440.219C559.456,440.219 559.742,439.932 559.742,439.579L559.742,432.057C559.742,431.704 559.456,431.417 559.102,431.417L550.49,431.417C545.436,431.417 541.339,435.514 541.339,440.568L541.339,447.82L536.777,447.82C536.424,447.82 536.138,448.107 536.138,448.46L536.138,455.982C536.138,456.336 536.424,456.622 536.777,456.622L541.339,456.622Z" style="fill:rgb(183,183,183);"/>
            </g>
        </g>
    </g>
</svg>
