<?xml version="1.0" encoding="UTF-8" standalone="no"?>
<!DOCTYPE svg PUBLIC "-//W3C//DTD SVG 1.1//EN" "http://www.w3.org/Graphics/SVG/1.1/DTD/svg11.dtd">
<svg width="100%" height="100%" viewBox="0 0 12 15" version="1.1" xmlns="http://www.w3.org/2000/svg" xmlns:xlink="http://www.w3.org/1999/xlink" xml:space="preserve" xmlns:serif="http://www.serif.com/" style="fill-rule:evenodd;clip-rule:evenodd;stroke-linejoin:round;stroke-miterlimit:2;">
    <g transform="matrix(1,0,0,1,-931.707,-929.337)">
        <g transform="matrix(0.571429,0,0,0.571429,1079.4,-601.317)">
            <g transform="matrix(0.0488303,0,0,0.0488303,-260.813,2678.65)">
                <path d="M262.948,0C122.628,0 48.004,89.92 48.004,187.968C48.004,233.44 73.412,290.144 114.084,308.128C120.26,310.912 123.62,309.728 124.996,304C126.212,299.648 131.556,278.688 134.148,268.8C134.948,265.632 134.532,262.88 131.972,259.904C118.468,244.288 107.748,215.84 107.748,189.152C107.748,120.768 162.116,54.368 254.628,54.368C334.628,54.368 390.596,106.336 390.596,180.672C390.596,264.672 346.148,322.784 288.388,322.784C256.42,322.784 232.612,297.696 240.164,266.656C249.284,229.696 267.172,189.952 267.172,163.296C267.172,139.392 253.668,119.616 226.084,119.616C193.54,119.616 167.14,151.84 167.14,195.104C167.14,222.592 176.868,241.152 176.868,241.152C176.868,241.152 144.676,371.2 138.692,395.488C128.58,436.608 140.068,503.2 141.06,508.928C141.668,512.096 145.22,513.088 147.204,510.496C150.372,506.336 189.284,450.816 200.196,410.688C204.164,396.064 220.452,336.768 220.452,336.768C231.172,356.128 262.116,372.352 295.076,372.352C393.124,372.352 463.972,286.176 463.972,179.232C463.62,76.704 375.876,0 262.948,0Z" style="fill:rgb(183,183,183);fill-rule:nonzero;"/>
            </g>
        </g>
    </g>
</svg>
