<?xml version="1.0" encoding="UTF-8" standalone="no"?>
<!DOCTYPE svg PUBLIC "-//W3C//DTD SVG 1.1//EN" "http://www.w3.org/Graphics/SVG/1.1/DTD/svg11.dtd">
<svg width="100%" height="100%" viewBox="0 0 15 15" version="1.1" xmlns="http://www.w3.org/2000/svg" xmlns:xlink="http://www.w3.org/1999/xlink" xml:space="preserve" xmlns:serif="http://www.serif.com/" style="fill-rule:evenodd;clip-rule:evenodd;stroke-linejoin:round;stroke-miterlimit:2;">
    <g transform="matrix(1,0,0,1,-876.126,-929.337)">
        <g transform="matrix(0.571429,0,0,0.571429,1076.62,-601.317)">
            <g transform="matrix(0.470384,0,0,0.470384,-656.067,2476.26)">
                <path d="M689.489,439.738C687.768,439.738 686.373,441.133 686.373,442.853C686.373,444.574 687.768,445.969 689.489,445.969C691.209,445.969 692.604,444.574 692.604,442.853C692.604,441.133 691.209,439.738 689.489,439.738Z" style="fill:rgb(183,183,183);fill-rule:nonzero;"/>
                <path d="M675.636,465.206C671.013,465.206 667.252,461.445 667.252,456.822C667.252,452.199 671.013,448.438 675.636,448.438C680.26,448.438 684.02,452.199 684.02,456.822C684.02,461.445 680.26,465.206 675.636,465.206ZM675.636,443.733C668.419,443.733 662.548,449.605 662.548,456.822C662.548,464.039 668.419,469.911 675.636,469.911C682.853,469.911 688.725,464.039 688.725,456.822C688.725,449.605 682.853,443.733 675.636,443.733Z" style="fill:rgb(183,183,183);fill-rule:nonzero;"/>
                <path d="M664.808,435.248C658.762,435.248 653.844,440.166 653.844,446.212L653.844,467.432C653.844,473.478 658.762,478.396 664.808,478.396L686.027,478.396C692.073,478.396 696.992,473.478 696.992,467.432L696.992,446.212C696.992,440.166 692.073,435.248 686.027,435.248L664.808,435.248ZM686.027,483.396L664.808,483.396C656.006,483.396 648.844,476.235 648.844,467.432L648.844,446.212C648.844,437.409 656.006,430.248 664.808,430.248L686.027,430.248C694.83,430.248 701.992,437.409 701.992,446.212L701.992,467.432C701.992,476.235 694.83,483.396 686.027,483.396Z" style="fill:rgb(183,183,183);fill-rule:nonzero;"/>
            </g>
        </g>
    </g>
</svg>
