<?xml version="1.0" encoding="UTF-8" standalone="no"?>
<!DOCTYPE svg PUBLIC "-//W3C//DTD SVG 1.1//EN" "http://www.w3.org/Graphics/SVG/1.1/DTD/svg11.dtd">
<svg width="100%" height="100%" viewBox="0 0 29 28" version="1.1" xmlns="http://www.w3.org/2000/svg" xmlns:xlink="http://www.w3.org/1999/xlink" xml:space="preserve" xmlns:serif="http://www.serif.com/" style="fill-rule:evenodd;clip-rule:evenodd;stroke-linejoin:round;stroke-miterlimit:2;">
    <g transform="matrix(1,0,0,1,-1662.55,-654.579)">
        <g transform="matrix(1,0,0,1,3585.92,4720.88)">
            <g transform="matrix(0.233,0,0,0.233,-1900.05,-4049.5)">
                <path d="M0,-24.075C1.791,-24.075 3.25,-22.617 3.25,-20.821C3.25,-19.03 1.791,-17.57 0,-17.57L-9.076,-17.57L-9.076,-11.75L0,-11.75C1.787,-11.75 3.25,-10.291 3.25,-8.499C3.25,-6.7 1.787,-5.242 0,-5.242L-12.334,-5.242C-14.121,-5.242 -15.584,-6.7 -15.584,-8.499L-15.584,-33.15C-15.584,-34.942 -14.123,-36.405 -12.334,-36.405L0,-36.405C1.791,-36.405 3.25,-34.942 3.25,-33.15C3.25,-31.354 1.791,-29.894 0,-29.894L-9.076,-29.894L-9.076,-24.075L0,-24.075ZM-19.949,-8.499C-19.949,-7.091 -20.844,-5.851 -22.178,-5.41C-22.512,-5.299 -22.857,-5.242 -23.207,-5.242C-24.223,-5.242 -25.193,-5.727 -25.807,-6.545L-38.44,-23.746L-38.44,-8.499C-38.44,-6.7 -39.897,-5.242 -41.694,-5.242C-43.487,-5.242 -44.948,-6.7 -44.948,-8.499L-44.948,-33.15C-44.948,-34.552 -44.051,-35.792 -42.721,-36.237C-42.387,-36.346 -42.04,-36.405 -41.692,-36.405C-40.676,-36.405 -39.702,-35.919 -39.092,-35.1L-26.457,-17.893L-26.457,-33.15C-26.457,-34.942 -24.996,-36.405 -23.203,-36.405C-21.408,-36.405 -19.949,-34.942 -19.949,-33.15L-19.949,-8.499ZM-49.625,-8.499C-49.625,-6.7 -51.085,-5.242 -52.876,-5.242C-54.67,-5.242 -56.129,-6.7 -56.129,-8.499L-56.129,-33.15C-56.129,-34.942 -54.67,-36.405 -52.876,-36.405C-51.085,-36.405 -49.625,-34.942 -49.625,-33.15L-49.625,-8.499ZM-62.377,-5.242L-74.702,-5.242C-76.494,-5.242 -77.952,-6.7 -77.952,-8.499L-77.952,-33.15C-77.952,-34.942 -76.494,-36.405 -74.702,-36.405C-72.908,-36.405 -71.45,-34.942 -71.45,-33.15L-71.45,-11.75L-62.377,-11.75C-60.578,-11.75 -59.123,-10.291 -59.123,-8.499C-59.123,-6.7 -60.578,-5.242 -62.377,-5.242M23.951,-21.759C23.951,-49.518 -3.879,-72.104 -38.086,-72.104C-72.293,-72.104 -100.129,-49.518 -100.129,-21.759C-100.129,3.125 -78.056,23.975 -48.244,27.918C-46.223,28.35 -43.475,29.253 -42.778,30.976C-42.152,32.541 -42.368,34.999 -42.579,36.583C-42.579,36.583 -43.302,40.96 -43.459,41.9C-43.734,43.466 -44.709,48.029 -38.086,45.24C-31.467,42.449 -2.361,24.201 10.652,9.218L10.65,9.218C19.645,-0.639 23.951,-10.647 23.951,-21.759" style="fill:white;fill-rule:nonzero;"/>
            </g>
        </g>
    </g>
</svg>
