<?xml version="1.0" encoding="UTF-8" standalone="no"?>
<!DOCTYPE svg PUBLIC "-//W3C//DTD SVG 1.1//EN" "http://www.w3.org/Graphics/SVG/1.1/DTD/svg11.dtd">
<svg width="100%" height="100%" viewBox="0 0 13 20" version="1.1" xmlns="http://www.w3.org/2000/svg" xmlns:xlink="http://www.w3.org/1999/xlink" xml:space="preserve" xmlns:serif="http://www.serif.com/" style="fill-rule:evenodd;clip-rule:evenodd;stroke-linejoin:round;stroke-miterlimit:2;">
    <g transform="matrix(1,0,0,1,-634.5,-1741.27)">
        <g transform="matrix(1,0,0,1,1648.48,3695.95)">
            <g transform="matrix(0.0380039,0,0,0.0380039,-954.563,-1871.2)">
                <g transform="matrix(1,0,0,1,-1648.48,-2196.75)">
                    <path d="M331.844,156.809C331.844,115.008 297.836,81 256.035,81C214.238,81 180.23,115.008 180.23,156.809C180.23,198.605 214.234,232.613 256.035,232.613C297.836,232.613 331.844,198.605 331.844,156.809Z" style="fill:rgb(26,28,32);fill-rule:nonzero;"/>
                </g>
                <g transform="matrix(1,0,0,1,-1648.48,-2196.75)">
                    <path d="M256.035,422C267.781,406.699 336.648,312.055 359.832,280.434C387.406,242.828 412.844,205.098 412.844,156.809C412.844,70.207 342.637,0.004 256.035,0.004L256.016,-0C169.41,-0 99.23,70.203 99.23,156.805C99.23,205.094 124.664,242.828 152.238,280.434C175.426,312.055 256.035,422 256.035,422ZM150.23,156.809C150.23,98.465 197.695,51 256.035,51C314.379,51 361.844,98.465 361.844,156.809C361.844,215.148 314.379,262.613 256.035,262.613C197.695,262.613 150.23,215.148 150.23,156.809Z" style="fill:rgb(26,28,32);fill-rule:nonzero;"/>
                </g>
                <g transform="matrix(1,0,0,1,-1648.48,-2196.75)">
                    <path d="M313.621,394.203C310.516,398.445 255.484,471.984 255.484,471.984L198.457,394.203L129.414,394.203L85,512L427.07,512L382.652,394.203L313.621,394.203Z" style="fill:rgb(26,28,32);fill-rule:nonzero;"/>
                </g>
            </g>
        </g>
    </g>
</svg>
