<?xml version="1.0" encoding="UTF-8" standalone="no"?>
<!DOCTYPE svg PUBLIC "-//W3C//DTD SVG 1.1//EN" "http://www.w3.org/Graphics/SVG/1.1/DTD/svg11.dtd">
<svg width="100%" height="100%" viewBox="0 0 169 41" version="1.1" xmlns="http://www.w3.org/2000/svg" xmlns:xlink="http://www.w3.org/1999/xlink" xml:space="preserve" xmlns:serif="http://www.serif.com/" style="fill-rule:evenodd;clip-rule:evenodd;stroke-linejoin:round;stroke-miterlimit:2;">
    <g transform="matrix(1,0,0,1,-384.954,-321.657)">
        <g transform="matrix(0.058594,0,0,0.058594,718,270)">
            <g transform="matrix(1.39035,0,0,1.39035,-3096.51,5968.64)">
                <g transform="matrix(8.33333,0,0,8.33333,-735.468,-3556.64)">
                    <path d="M0,7.449L5.312,7.449L5.312,12.773C4.531,13.368 3.2,13.691 1.917,13.691C-4.119,13.691 -7.104,10.008 -7.104,3.669C-7.104,-2.513 -3.598,-6.241 1.337,-6.241C4.086,-6.241 5.799,-5.196 7.391,-3.787L11.212,-8.258C9.053,-10.351 5.747,-12.261 1.094,-12.261C-7.465,-12.261 -14.533,-6.327 -14.533,3.903C-14.533,14.289 -7.662,19.71 1.17,19.71C5.644,19.71 9.538,18.056 11.75,15.974L11.75,1.759L0,1.759L0,7.449Z" style="fill:white;fill-rule:nonzero;"/>
                </g>
                <g transform="matrix(8.33333,0,0,8.33333,-497.439,-3547.72)">
                    <path d="M0,5.309L0.77,2.455C1.66,-0.628 2.516,-4.235 3.291,-7.491L3.488,-7.491C4.345,-4.274 5.201,-0.628 6.092,2.455L6.858,5.309L0,5.309ZM-0.785,-12.763L-10.854,18.072L-3.443,18.072L-1.461,10.726L8.313,10.726L10.287,18.072L17.958,18.072L7.889,-12.763L-0.785,-12.763Z" style="fill:white;fill-rule:nonzero;"/>
                </g>
                <g transform="matrix(8.33333,0,0,8.33333,-182.449,-3556.64)">
                    <path d="M0,7.449L5.312,7.449L5.312,12.773C4.53,13.368 3.2,13.691 1.917,13.691C-4.119,13.691 -7.104,10.008 -7.104,3.669C-7.104,-2.513 -3.598,-6.241 1.338,-6.241C4.086,-6.241 5.799,-5.196 7.391,-3.787L11.212,-8.258C9.053,-10.351 5.747,-12.261 1.094,-12.261C-7.465,-12.261 -14.533,-6.327 -14.533,3.903C-14.533,14.289 -7.662,19.71 1.17,19.71C5.644,19.71 9.538,18.056 11.75,15.974L11.75,1.759L0,1.759L0,7.449Z" style="fill:white;fill-rule:nonzero;"/>
                </g>
                <g transform="matrix(8.33333,0,0,8.33333,155.23,-3392.4)">
                    <path d="M0,-31.402L0,-14.143C0,-8.105 -2.076,-6.018 -5.682,-6.018C-9.269,-6.018 -11.247,-8.105 -11.247,-14.143L-11.247,-31.402L-18.495,-31.402L-18.495,-14.856C-18.495,-4.504 -13.977,0 -5.682,0C2.613,0 6.989,-4.504 6.989,-14.856L6.989,-31.402L0,-31.402Z" style="fill:white;fill-rule:nonzero;"/>
                </g>
                <g transform="matrix(8.33333,0,0,8.33333,-679.112,-3321.78)">
                    <path d="M0,16.392C0.443,16.392 0.517,15.943 0.591,13.175C1.157,13.601 2.313,14.05 3.051,14.216C2.805,17.859 2.141,18.876 0.295,18.876L-1.476,18.876C-3.715,18.876 -4.208,18.048 -4.208,15.564L-4.208,8.515L-5.61,8.681C-5.806,13.744 -6.471,17.291 -10.481,19.396C-10.801,18.711 -11.638,17.67 -12.253,17.197C-9.005,15.588 -8.513,12.987 -8.366,9.036C-9.3,9.154 -9.694,9.272 -10.038,9.414C-10.187,8.871 -10.679,7.475 -11.023,6.718C-10.432,6.552 -9.941,5.985 -9.326,5.014C-9.029,4.635 -8.463,3.737 -7.848,2.554L-10.777,2.554L-10.777,-0.072L-6.594,-0.072C-6.2,-0.994 -5.806,-1.94 -5.486,-2.91L-2.313,-2.106C-2.607,-1.42 -2.904,-0.757 -3.223,-0.072L2.56,-0.072L2.56,2.554L-4.601,2.554C-5.339,3.903 -6.151,5.157 -6.938,6.291L-1.747,5.819C-2.14,5.18 -2.534,4.565 -2.878,3.973L-0.516,2.956C0.738,4.778 2.215,7.191 2.805,8.823L0.246,9.958C0.074,9.414 -0.196,8.799 -0.516,8.114L-1.476,8.232L-1.476,15.564C-1.476,16.297 -1.426,16.392 -1.009,16.392L0,16.392ZM-11.86,11.851C-11.417,13.081 -10.9,14.665 -10.653,15.683L-12.696,16.415C-12.893,15.351 -13.385,13.719 -13.828,12.49L-11.86,11.851ZM-14.467,12.537C-14.172,14.098 -13.877,16.061 -13.803,17.41L-15.969,17.93C-16.018,16.605 -16.264,14.595 -16.509,13.057L-14.467,12.537ZM-12.671,11.708C-12.721,11.377 -12.794,11.046 -12.893,10.644C-17.814,11.472 -18.626,11.733 -19.167,11.993C-19.291,11.472 -19.733,10.195 -20.078,9.485C-19.413,9.32 -18.897,8.823 -18.159,7.924C-17.838,7.593 -17.297,6.954 -16.658,6.055C-18.478,6.268 -19.02,6.386 -19.364,6.552C-19.512,6.008 -19.955,4.778 -20.25,4.068C-19.783,3.95 -19.364,3.5 -18.872,2.79C-18.355,2.128 -16.879,-0.498 -15.993,-3.004L-13.385,-1.917C-14.295,0.094 -15.526,2.223 -16.806,3.973L-15.182,3.855C-14.517,2.744 -13.828,1.49 -13.287,0.307L-10.875,1.75C-12.277,4.304 -14.123,6.883 -15.993,9.012L-13.532,8.633C-13.753,8.019 -14,7.404 -14.246,6.883L-12.277,6.15C-11.516,7.663 -10.777,9.603 -10.556,10.88L-12.671,11.708ZM-17.027,13.105C-17.199,15.209 -17.593,17.456 -18.109,18.876C-18.577,18.592 -19.684,18.261 -20.274,18.12C-19.708,16.747 -19.438,14.642 -19.291,12.749L-17.027,13.105Z" style="fill:white;fill-rule:nonzero;"/>
                </g>
                <g transform="matrix(8.33333,0,0,8.33333,-3711.12,-5272.07)">
                    <path d="M385.04,243.757L389.715,243.757L389.715,241.155L385.04,241.155L385.04,243.757ZM395.816,250.238C397.833,250.238 398.203,249.837 398.474,247.59C399.187,248.016 400.467,248.441 401.279,248.56C400.787,251.895 399.802,252.865 396.013,252.865L387.992,252.865C383.465,252.865 382.136,252.013 382.136,248.701L382.136,239.807C381.595,240.304 381.053,240.801 380.537,241.227C380.02,240.659 378.814,239.594 378.149,239.098C380.782,237.252 383.243,234.248 384.571,231.102L387.598,231.978C387.229,232.781 386.811,233.538 386.343,234.319L399.335,234.319C399.335,234.319 399.31,235.147 399.286,235.502C399.064,242.93 398.843,245.697 398.154,246.62C397.662,247.329 397.096,247.566 396.357,247.685C395.693,247.803 394.66,247.826 393.528,247.779C393.503,246.975 393.208,245.815 392.765,245.105C393.602,245.177 394.34,245.2 394.759,245.177C395.103,245.2 395.325,245.105 395.521,244.846C395.915,244.349 396.112,242.338 396.284,236.969L384.571,236.969C384.104,237.583 383.637,238.151 383.169,238.695L392.569,238.695L392.569,246.265L385.04,246.265L385.04,248.654C385.04,250.025 385.433,250.238 387.992,250.238L395.816,250.238Z" style="fill:white;fill-rule:nonzero;"/>
                </g>
                <g transform="matrix(8.33333,0,0,8.33333,-82.4166,-3300.88)">
                    <path d="M0,12.324L0,15.163L-22.367,15.163L-22.367,12.324L-12.992,12.324L-12.992,0.095L-21.038,0.095L-21.038,-2.839L-1.379,-2.839L-1.379,0.095L-9.646,0.095L-9.646,12.324L0,12.324Z" style="fill:white;fill-rule:nonzero;"/>
                </g>
                <g transform="matrix(8.33333,0,0,8.33333,-3711.12,-5266.17)">
                    <path d="M465.918,233.919L459.791,233.919L459.791,237.325L465.918,237.325L465.918,233.919ZM468.748,239.69L457.084,239.69L457.084,231.552L468.748,231.552L468.748,239.69ZM469.929,249.673L469.929,252.18L455.707,252.18L455.707,249.673L461.637,249.673L461.637,247.521L456.962,247.521L456.962,245.107L461.637,245.107L461.637,243.191C460.333,243.286 459.004,243.356 457.773,243.404C457.676,242.789 457.355,241.843 457.061,241.275C460.604,241.063 464.614,240.613 467.099,239.998L468.895,242.127C467.591,242.435 466.09,242.671 464.54,242.884L464.54,245.107L468.944,245.107L468.944,247.521L464.54,247.521L464.54,249.673L469.929,249.673ZM454.87,246.243C454.55,245.462 453.935,244.303 453.345,243.238L453.345,252.653L450.563,252.653L450.563,243.854C449.851,245.817 449.038,247.662 448.128,248.963C447.883,248.111 447.268,246.882 446.874,246.172C448.029,244.61 449.187,242.104 449.899,239.833L447.192,239.833L447.192,237.206L450.563,237.206L450.563,234.368C449.776,234.51 448.989,234.652 448.251,234.747C448.128,234.108 447.784,233.162 447.464,232.57C449.974,232.145 452.754,231.435 454.575,230.606L456.125,232.925C455.264,233.256 454.328,233.54 453.345,233.776L453.345,237.206L456.101,237.206L456.101,239.833L453.345,239.833L453.345,240.211C453.984,240.897 455.978,243.356 456.42,243.948L454.87,246.243Z" style="fill:white;fill-rule:nonzero;"/>
                </g>
                <g transform="matrix(8.33333,0,0,8.33333,-973.982,-3160.14)">
                    <path d="M0,-59.841L-103.206,-59.841C-104.994,-59.841 -106.444,-58.391 -106.444,-56.603L-106.444,-3.238C-106.444,-1.449 -104.994,0 -103.206,0L-68.505,0C-68.036,0 -67.761,-0.528 -68.03,-0.912L-78.856,-16.374L-80.014,-15.564C-80.167,-15.456 -80.378,-15.487 -80.494,-15.635L-80.573,-15.736C-82.352,-18.013 -85.566,-18.594 -87.89,-17.059C-89.115,-16.248 -89.944,-15.008 -90.218,-13.567C-90.492,-12.128 -90.182,-10.675 -89.345,-9.475C-89.231,-9.311 -89.261,-9.089 -89.425,-8.974L-93.063,-6.426C-93.221,-6.316 -93.443,-6.354 -93.553,-6.511C-98.704,-13.865 -96.911,-24.039 -89.556,-29.19L-77.733,-37.468C-77.567,-37.584 -77.348,-37.529 -77.23,-37.363C-76.069,-35.734 -73.396,-35.794 -72.445,-38.115C-72.12,-38.908 -72.405,-39.74 -72.87,-40.459C-72.973,-40.617 -72.932,-40.829 -72.776,-40.939L-67.755,-44.454C-67.596,-44.566 -67.376,-44.528 -67.265,-44.368L-58.127,-31.319C-58.016,-31.159 -58.055,-30.94 -58.214,-30.828L-63.235,-27.313C-63.402,-27.195 -63.621,-27.251 -63.739,-27.417C-64.899,-29.046 -67.573,-28.986 -68.523,-26.665C-68.848,-25.872 -68.564,-25.04 -68.099,-24.321C-67.996,-24.162 -68.036,-23.95 -68.192,-23.841L-69.774,-22.734L-53.855,0L-43.875,0L-28.074,-22.565C-28.504,-23.473 -28.811,-24.436 -28.987,-25.43C-29.507,-28.382 -28.847,-31.36 -27.128,-33.814C-24.533,-37.52 -19.998,-39.301 -15.574,-38.35C-15.167,-38.263 -14.833,-37.979 -14.681,-37.591C-14.528,-37.203 -14.58,-36.768 -14.819,-36.427L-19.924,-29.137C-19.997,-29.032 -20.025,-28.891 -20,-28.748C-19.975,-28.607 -19.9,-28.483 -19.795,-28.409L-16.331,-25.984C-16.095,-25.819 -15.769,-25.875 -15.603,-26.112L-10.499,-33.402C-10.26,-33.743 -9.869,-33.941 -9.453,-33.93C-9.036,-33.919 -8.654,-33.702 -8.434,-33.35C-7.66,-32.118 -7.139,-30.765 -6.886,-29.326C-6.365,-26.374 -7.025,-23.397 -8.744,-20.942C-11.061,-17.633 -14.972,-15.83 -18.991,-16.205L-29.7,-0.911C-29.969,-0.528 -29.694,0 -29.226,0L0,0C1.789,0 3.238,-1.449 3.238,-3.238L3.238,-56.603C3.238,-58.391 1.789,-59.841 0,-59.841" style="fill:white;fill-rule:nonzero;"/>
                </g>
            </g>
        </g>
    </g>
</svg>
