<?xml version="1.0" encoding="UTF-8" standalone="no"?>
<!DOCTYPE svg PUBLIC "-//W3C//DTD SVG 1.1//EN" "http://www.w3.org/Graphics/SVG/1.1/DTD/svg11.dtd">
<svg width="100%" height="100%" viewBox="0 0 18 20" version="1.1" xmlns="http://www.w3.org/2000/svg" xmlns:xlink="http://www.w3.org/1999/xlink" xml:space="preserve" xmlns:serif="http://www.serif.com/" style="fill-rule:evenodd;clip-rule:evenodd;stroke-linejoin:round;stroke-miterlimit:2;">
    <g transform="matrix(1,0,0,1,-447.11,-350.81)">
        <g transform="matrix(1,0,0,1,447.11,350.81)">
            <g transform="matrix(1,0,0,1,14.9316,6.137)">
                <path d="M0,7.363C-0.919,7.363 -1.735,7.778 -2.299,8.421L-8.959,4.624C-8.861,4.325 -8.795,4.012 -8.795,3.681C-8.795,3.35 -8.861,3.037 -8.959,2.738L-2.299,-1.059C-1.735,-0.415 -0.919,0 0,0C1.691,-0.001 3.068,-1.377 3.068,-3.069C3.068,-4.761 1.691,-6.137 0,-6.137C-1.691,-6.137 -3.068,-4.761 -3.068,-3.069C-3.068,-2.738 -3.002,-2.425 -2.904,-2.125L-9.564,1.672C-10.127,1.028 -10.944,0.613 -11.863,0.613C-13.555,0.613 -14.932,1.989 -14.932,3.681C-14.932,5.374 -13.555,6.75 -11.863,6.75C-10.944,6.75 -10.127,6.335 -9.563,5.691L-2.904,9.488C-3.002,9.787 -3.068,10.1 -3.068,10.431C-3.068,12.123 -1.69,13.5 0,13.5C1.691,13.5 3.068,12.123 3.068,10.431C3.068,8.739 1.691,7.363 0,7.363" style="fill:rgb(28,30,33);"/>
            </g>
        </g>
    </g>
</svg>
