<?xml version="1.0" encoding="UTF-8" standalone="no"?>
<!DOCTYPE svg PUBLIC "-//W3C//DTD SVG 1.1//EN" "http://www.w3.org/Graphics/SVG/1.1/DTD/svg11.dtd">
<svg width="100%" height="100%" viewBox="0 0 20 22" version="1.1" xmlns="http://www.w3.org/2000/svg" xmlns:xlink="http://www.w3.org/1999/xlink" xml:space="preserve" xmlns:serif="http://www.serif.com/" style="fill-rule:evenodd;clip-rule:evenodd;stroke-linejoin:round;stroke-miterlimit:2;">
    <g transform="matrix(1,0,0,1,-1634.93,-1134.72)">
        <g transform="matrix(1,0,0,1,1634.93,1134.72)">
            <g transform="matrix(1,0,0,1,16.5909,1.3628)">
                <path d="M0,19.092C-1.127,19.092 -2.046,18.175 -2.046,17.046C-2.046,15.918 -1.127,15.001 0,15.001C1.127,15.001 2.046,15.918 2.046,17.046C2.046,18.175 1.127,19.092 0,19.092M-13.182,11.592C-14.31,11.592 -15.228,10.675 -15.228,9.546C-15.228,8.418 -14.31,7.501 -13.182,7.501C-12.055,7.501 -11.137,8.418 -11.137,9.546C-11.137,10.675 -12.055,11.592 -13.182,11.592M0,0.001C1.127,0.001 2.046,0.918 2.046,2.046C2.046,3.175 1.127,4.092 0,4.092C-1.127,4.092 -2.046,3.175 -2.046,2.046C-2.046,0.918 -1.127,0.001 0,0.001M0,13.637C-1.021,13.637 -1.929,14.098 -2.554,14.812L-9.954,10.593C-9.847,10.261 -9.772,9.914 -9.772,9.546C-9.772,9.178 -9.847,8.831 -9.954,8.499L-2.555,4.28C-1.929,4.994 -1.021,5.455 0,5.455C1.879,5.455 3.409,3.926 3.409,2.046C3.409,0.166 1.879,-1.363 0,-1.363C-1.879,-1.363 -3.409,0.166 -3.409,2.046C-3.409,2.414 -3.335,2.762 -3.228,3.094L-10.627,7.313C-11.253,6.598 -12.16,6.137 -13.182,6.137C-15.061,6.137 -16.591,7.666 -16.591,9.546C-16.591,11.426 -15.061,12.955 -13.182,12.955C-12.16,12.955 -11.252,12.494 -10.627,11.779L-3.227,15.998C-3.335,16.33 -3.409,16.678 -3.409,17.046C-3.409,18.926 -1.879,20.455 0,20.455C1.879,20.455 3.409,18.926 3.409,17.046C3.409,15.166 1.879,13.637 0,13.637" style="fill:white;fill-rule:nonzero;"/>
            </g>
        </g>
    </g>
</svg>
