<?xml version="1.0" encoding="UTF-8" standalone="no"?>
<!DOCTYPE svg PUBLIC "-//W3C//DTD SVG 1.1//EN" "http://www.w3.org/Graphics/SVG/1.1/DTD/svg11.dtd">
<svg width="100%" height="100%" viewBox="0 0 19 16" version="1.1" xmlns="http://www.w3.org/2000/svg" xmlns:xlink="http://www.w3.org/1999/xlink" xml:space="preserve" xmlns:serif="http://www.serif.com/" style="fill-rule:evenodd;clip-rule:evenodd;stroke-linejoin:round;stroke-miterlimit:2;">
    <g transform="matrix(1,0,0,1,-1635.28,-1326.49)">
        <g transform="matrix(1,0,0,1,1551.27,3673.38)">
            <g transform="matrix(0.368867,0,0,0.368867,-62.2976,-2507.8)">
                <path d="M445.861,441.1C444.292,441.81 442.565,442.241 440.871,442.525C441.675,442.39 442.86,440.935 443.334,440.346C444.057,439.448 444.658,438.425 444.996,437.32C445.039,437.234 445.072,437.125 444.985,437.06C444.877,437.017 444.807,437.039 444.721,437.082C442.83,438.095 440.875,438.83 438.794,439.35C438.621,439.393 438.493,439.35 438.385,439.242C438.212,439.047 438.05,438.864 437.867,438.712C436.992,437.968 436.053,437.384 434.995,436.953C433.606,436.386 432.088,436.147 430.591,436.244C429.135,436.338 427.706,436.749 426.413,437.424C425.118,438.1 423.963,439.041 423.043,440.177C422.091,441.351 421.389,442.738 421.03,444.208C420.683,445.627 420.711,447.031 420.923,448.465C420.955,448.703 420.934,448.735 420.719,448.703C412.577,447.491 405.828,444.578 400.35,438.335C400.112,438.064 399.983,438.064 399.788,438.356C397.391,441.949 398.554,447.723 401.549,450.56C401.948,450.938 402.358,451.316 402.801,451.661C402.639,451.694 400.646,451.478 398.87,450.56C398.633,450.409 398.513,450.496 398.492,450.765C398.47,451.154 398.503,451.511 398.556,451.932C399.017,455.575 401.539,458.944 404.994,460.258C405.404,460.431 405.857,460.582 406.3,460.658C405.512,460.83 404.702,460.954 402.445,460.777C402.164,460.723 402.056,460.863 402.164,461.133C403.86,465.756 407.521,467.132 410.263,467.916C410.63,467.98 410.998,467.98 411.366,468.066C411.344,468.099 411.322,468.099 411.301,468.131C410.391,469.518 407.238,470.55 405.769,471.063C403.099,471.996 400.191,472.416 397.368,472.138C396.917,472.072 396.822,472.077 396.699,472.138C396.576,472.214 396.684,472.322 396.829,472.44C397.402,472.818 397.984,473.153 398.579,473.477C400.371,474.427 402.24,475.184 404.194,475.723C414.286,478.51 425.654,476.462 433.231,468.934C439.182,463.021 441.267,454.868 441.267,446.705C441.267,446.385 441.645,446.209 441.869,446.04C443.418,444.877 444.648,443.485 445.803,441.93C446.062,441.581 446.046,441.27 446.046,441.143L446.046,441.1C446.046,440.969 446.062,441.009 445.861,441.1Z" style="fill:white;fill-rule:nonzero;"/>
            </g>
        </g>
    </g>
</svg>
