<?xml version="1.0" encoding="UTF-8" standalone="no"?>
<!DOCTYPE svg PUBLIC "-//W3C//DTD SVG 1.1//EN" "http://www.w3.org/Graphics/SVG/1.1/DTD/svg11.dtd">
<svg width="100%" height="100%" viewBox="0 0 43 51" version="1.1" xmlns="http://www.w3.org/2000/svg" xmlns:xlink="http://www.w3.org/1999/xlink" xml:space="preserve" xmlns:serif="http://www.serif.com/" style="fill-rule:evenodd;clip-rule:evenodd;stroke-linejoin:round;stroke-miterlimit:2;">
    <g transform="matrix(1,0,0,1,-1484.29,-10987.2)">
        <g transform="matrix(1,0,0,1,2529.81,3789.6)">
            <g transform="matrix(0.0980924,0,0,0.0980924,-1049.25,7197.6)">
                <g>
                    <path d="M450.465,104.817C406.821,98.321 373.964,64.281 368.706,20.112C367.34,8.646 357.681,0 346.238,0L165.761,0C154.319,0 144.66,8.646 143.294,20.109C141.11,38.443 134.102,55.56 123.027,69.607C120.463,72.86 121.021,77.576 124.274,80.14C127.527,82.705 132.243,82.146 134.807,78.894C147.591,62.676 155.677,42.962 158.189,21.884C158.657,17.959 161.912,14.999 165.762,14.999L346.239,14.999C350.089,14.999 353.344,17.959 353.812,21.885C359.881,72.859 397.836,112.148 448.258,119.653C454.351,120.56 458.946,125.981 458.946,132.263L458.946,236.03C458.946,334.382 404.967,424.102 318.072,470.175L277.621,491.621C264.107,498.787 247.97,498.788 234.453,491.624L193.964,470.165C107.047,424.098 53.054,334.371 53.054,236.002L53.054,132.262C53.054,125.981 57.649,120.56 63.743,119.653C79.387,117.322 93.927,112.01 106.959,103.867C110.472,101.672 111.54,97.045 109.345,93.532C107.15,90.02 102.522,88.949 99.011,91.146C87.736,98.191 75.127,102.791 61.534,104.817C48.149,106.81 38.055,118.609 38.055,132.262L38.055,236.002C38.055,286.87 51.918,336.796 78.147,380.381C104.374,423.967 141.995,459.597 186.94,483.42L227.429,504.879C236.386,509.626 246.21,512 256.034,512C265.862,511.999 275.69,509.624 284.648,504.874L325.098,483.428C370.033,459.603 407.645,423.974 433.865,380.392C460.086,336.811 473.946,286.892 473.946,236.031L473.946,132.264C473.946,118.608 463.851,106.809 450.465,104.817Z" style="fill-rule:nonzero;"/>
                    <path d="M391.748,373.331C395.217,375.593 399.864,374.614 402.126,371.143C429.205,329.598 443.519,281.431 443.519,231.849L443.519,146.028C443.519,139.511 438.607,134.133 432.094,133.515C395.735,130.077 343.899,84.666 340.703,42.935C340.206,36.451 334.704,31.371 328.179,31.371L182.165,31.371C175.627,31.371 170.125,36.462 169.639,42.961C166.515,84.729 115.613,130.119 79.901,133.515C73.391,134.134 68.481,139.514 68.481,146.028L68.481,231.11C68.481,326.222 120.687,412.979 204.725,457.522L241.476,477.001C246.035,479.417 251.036,480.625 256.036,480.625C261.038,480.625 266.042,479.416 270.602,476.998L307.936,457.203C335.602,442.533 360.059,423.146 380.623,399.577C383.346,396.456 383.024,391.719 379.903,388.995C376.782,386.273 372.044,386.593 369.321,389.716C349.967,411.897 326.949,430.144 300.909,443.951L263.575,463.746C258.855,466.248 253.22,466.25 248.5,463.747L211.749,444.268C132.63,402.332 83.48,320.654 83.48,231.109L83.48,148.203C103.587,145.581 127.201,132.84 147.127,113.765C168.481,93.326 181.957,68.897 184.387,46.371L325.962,46.371C328.447,68.877 342.23,93.323 364.072,113.816C384.372,132.864 408.283,145.588 428.519,148.206L428.519,231.85C428.519,278.517 415.048,323.851 389.56,362.953C387.299,366.424 388.278,371.069 391.748,373.331Z" style="fill-rule:nonzero;"/>
                    <path d="M378.773,189.126C382.418,187.157 383.775,182.606 381.807,178.962C375.763,167.775 368.203,157.399 359.334,148.12C304.909,91.185 214.275,89.16 157.295,143.608C129.694,169.984 114.012,205.521 113.137,243.674C112.262,281.829 126.301,318.031 152.667,345.614C180.681,374.919 218.277,389.677 255.95,389.675C346.191,389.449 410.805,308.727 397.054,223.807C396.391,219.717 392.536,216.946 388.45,217.604C384.361,218.267 381.584,222.119 382.247,226.208C395.165,307.89 330.617,375.069 255.946,374.684C222.236,374.681 188.576,361.474 163.509,335.25C139.913,310.566 127.349,278.166 128.133,244.02C128.916,209.871 142.952,178.062 167.658,154.453C218.658,105.72 299.781,107.527 348.49,158.486C356.433,166.796 363.202,176.084 368.61,186.093C370.579,189.736 375.129,191.097 378.773,189.126Z" style="fill-rule:nonzero;"/>
                    <path d="M184.831,314.935C181.977,311.932 177.229,311.813 174.228,314.666C171.226,317.52 171.106,322.267 173.96,325.27C194.932,347.356 224.833,360.351 255.974,360.431C306.033,361.194 354.691,324.221 366.024,274.512C389.539,173.908 283.208,99.581 197.679,149.943C153.157,176.695 132.519,230.067 147.49,279.735C148.685,283.702 152.87,285.949 156.835,284.752C160.801,283.557 163.047,279.373 161.851,275.407C148.863,232.318 166.773,186.013 205.404,162.801C284.211,117.102 371.821,189.308 351.47,270.884C345.116,296.371 329.216,317.858 306.701,331.386C267.524,354.926 216.271,348.008 184.831,314.935Z" style="fill-rule:nonzero;"/>
                    <g transform="matrix(0.969207,0,0,0.969207,9.19821,17.8843)">
                        <path d="M207.73,241.289L243.363,269.777C244.742,270.879 246.398,271.418 248.043,271.418C250.113,271.418 252.172,270.566 253.648,268.906L302.469,214.066C305.223,210.973 304.949,206.234 301.855,203.48C298.762,200.727 294.023,201 291.266,204.094L247.176,253.617L217.094,229.57C213.859,226.984 209.141,227.512 206.555,230.746C203.969,233.98 204.492,238.703 207.73,241.289Z" style="fill-rule:nonzero;"/>
                    </g>
                </g>
            </g>
        </g>
    </g>
</svg>
