<?xml version="1.0" encoding="UTF-8" standalone="no"?>
<!DOCTYPE svg PUBLIC "-//W3C//DTD SVG 1.1//EN" "http://www.w3.org/Graphics/SVG/1.1/DTD/svg11.dtd">
<svg width="100%" height="100%" viewBox="0 0 50 51" version="1.1" xmlns="http://www.w3.org/2000/svg" xmlns:xlink="http://www.w3.org/1999/xlink" xml:space="preserve" xmlns:serif="http://www.serif.com/" style="fill-rule:evenodd;clip-rule:evenodd;stroke-linejoin:round;stroke-miterlimit:2;">
    <g transform="matrix(1,0,0,1,-1255.64,-10987.2)">
        <g transform="matrix(0.098092,0,0,0.098092,1255.53,10987.2)">
            <path d="M510.793,355.232C510.679,350.173 506.777,346.012 501.738,345.571C478.135,343.509 449.09,327.654 427.739,305.182C425.866,303.211 423.268,302.095 420.549,302.094L420.546,302.094C417.83,302.094 415.231,303.208 413.358,305.177C403.774,315.25 392.65,323.988 381.171,330.756C361.027,308.269 336.235,291.702 307.177,281.273C306.924,281.171 306.668,281.08 306.406,280.998C304.143,280.197 301.853,279.432 299.538,278.703C324.112,254.195 340.642,221.987 340.642,193.094L340.642,177.505C352.259,172.447 360.405,160.853 360.405,147.386C360.405,133.397 351.601,121.433 339.245,116.725C334.145,67.214 299.263,25.594 251.348,11.825C249.932,5.081 243.941,0 236.783,0L200.83,0C193.926,0 188.123,4.731 186.448,11.117C162.879,17.403 141.35,30.819 125.21,49.472C108.827,68.405 98.639,92.048 96.052,116.73C83.69,121.44 74.883,133.402 74.883,147.387C74.883,160.859 83.041,172.456 94.674,177.511L94.674,193.094C94.674,221.961 111.206,254.181 135.779,278.706C133.532,279.413 131.307,280.152 129.107,280.928C128.674,281.051 128.254,281.203 127.844,281.382C95.32,293.115 68.168,312.536 46.903,339.355C26.452,365.15 11.914,397.004 3.693,434.04C0.767,447.275 -1.434,463.908 7.591,475.146C16.407,486.122 32.18,487.529 44.939,487.529L109.842,487.529C115.322,487.529 119.764,483.086 119.764,477.607C119.764,472.128 115.322,467.685 109.842,467.685L44.939,467.685C33.069,467.685 25.709,466.015 23.063,462.72C20.26,459.229 20.262,451.021 23.066,438.331C33.378,391.885 58.591,335.048 119.339,306.351C117.471,339.87 135.633,361.779 147.177,375.685C148.944,377.814 151.519,379.108 154.283,379.256C157.044,379.408 159.744,378.39 161.728,376.462L217.645,322.082L273.589,376.464C275.445,378.267 277.928,379.271 280.504,379.271C280.682,379.271 280.859,379.266 281.039,379.256C283.802,379.107 286.379,377.81 288.145,375.678C299.673,361.761 317.808,339.838 315.957,306.39C333.581,314.75 349.152,325.931 362.542,339.859C354.546,342.954 346.684,344.931 339.353,345.572C334.317,346.012 330.417,350.17 330.299,355.225C329.468,390.698 335.381,416.113 351.376,445.86C351.511,446.112 356.917,455.801 365.339,467.687L199.667,467.687C194.187,467.687 189.745,472.13 189.745,477.609C189.745,483.088 194.187,487.531 199.667,487.531L381.097,487.531C393.059,500.751 407.167,512.002 420.545,512.002C452.823,512.002 489.359,446.521 489.71,445.866C505.68,416.115 511.59,390.704 510.793,355.232ZM318.993,114.583L264.366,114.583C254.045,87.622 252.092,65.39 251.742,32.755C287.529,45.412 313.545,76.989 318.993,114.583ZM205.785,19.844L231.826,19.844C231.889,58.249 232.862,84.26 243.259,114.583L194.372,114.583C204.752,84.259 205.724,58.245 205.785,19.844ZM185.879,31.972C185.552,65.037 183.655,87.406 173.271,114.584L116.318,114.584C121.977,76.501 149.353,44.068 185.879,31.972ZM107.715,134.426L174.089,134.426C174.674,134.9 175.239,134.961 175.714,134.426L327.601,134.426C334.748,134.426 340.562,140.239 340.562,147.387C340.562,154.549 334.749,160.376 327.601,160.376L107.715,160.376C100.553,160.376 94.726,154.549 94.726,147.387C94.726,140.24 100.552,134.426 107.715,134.426ZM114.517,193.094L114.517,180.219L320.798,180.219L320.798,193.094C320.798,230.922 284.151,277.706 242.372,293.215C224.091,300.009 211.112,300.003 192.789,293.193C151.093,277.621 114.517,230.845 114.517,193.094ZM155.694,354.649C145.425,341.242 135.537,323.641 140.29,298.092C144.666,296.679 149.189,295.39 153.878,294.25C163.883,301.59 174.674,307.611 185.861,311.789C189.461,313.126 192.926,314.228 196.315,315.145L155.694,354.649ZM279.611,354.643L238.966,315.133C242.311,314.225 245.73,313.137 249.28,311.817C260.523,307.644 271.366,301.612 281.418,294.248C286.05,295.375 290.579,296.652 294.998,298.083C299.761,323.597 289.877,341.216 279.611,354.643ZM472.223,436.486C460.489,458.385 433.011,492.156 420.545,492.156C408.079,492.156 380.601,458.385 368.861,436.473C355.749,412.093 350.368,391.762 350.077,364.08C360.78,362.043 371.923,358.049 382.881,352.471C383.266,352.303 383.641,352.106 384.009,351.885C396.804,345.235 409.318,336.433 420.541,325.973C441.673,345.687 467.399,359.591 491.006,364.081C490.693,391.767 485.313,412.102 472.223,436.486Z" style="fill-rule:nonzero;"/>
        </g>
    </g>
</svg>
