<?xml version="1.0" encoding="UTF-8" standalone="no"?>
<!DOCTYPE svg PUBLIC "-//W3C//DTD SVG 1.1//EN" "http://www.w3.org/Graphics/SVG/1.1/DTD/svg11.dtd">
<svg width="100%" height="100%" viewBox="0 0 40 49" version="1.1" xmlns="http://www.w3.org/2000/svg" xmlns:xlink="http://www.w3.org/1999/xlink" xml:space="preserve" xmlns:serif="http://www.serif.com/" style="fill-rule:evenodd;clip-rule:evenodd;stroke-linejoin:round;stroke-miterlimit:2;">
    <g transform="matrix(1,0,0,1,-1485.81,-10839)">
        <g transform="matrix(1,0,0,1,2529.81,3789.6)">
            <g transform="matrix(0.103448,0,0,0.103448,-877.603,6897.05)">
                <g transform="matrix(1,0,0,1,-1648.48,1472.47)">
                    <g>
                        <path d="M422.32,403.096L373.64,340.512C389.414,335.799 403.04,325.711 412.152,312C423.616,292.184 418.432,268 413.416,244.64C410.383,232.64 408.568,220.364 408,208C408.566,195.625 410.38,183.338 413.416,171.328C418.4,147.952 423.616,123.784 412.152,104C400.28,83.488 376.376,75.896 353.256,68.568C341.747,65.397 330.601,61.032 320,55.544C310.38,49.304 301.448,42.064 293.352,33.944C276.2,18.024 256.752,0 232,0C207.248,0 187.8,18.024 170.64,33.936C162.547,42.058 153.617,49.301 144,55.544C133.4,61.021 122.257,65.375 110.752,68.536C87.632,75.864 63.728,83.456 51.856,103.968C40.392,123.784 45.576,147.968 50.592,171.328C53.625,183.339 55.437,195.625 56,208C55.434,220.375 53.62,232.662 50.584,244.672C45.6,268.048 40.384,292.216 51.848,312C60.972,325.716 74.613,335.801 90.4,340.504L41.68,403.088C38.968,406.576 39.597,411.602 43.086,414.314C44.762,415.617 46.886,416.2 48.992,415.936L106.192,408.792L120.312,458.2C121.139,461.096 123.523,463.282 126.48,463.856C126.981,463.951 127.49,464 128,464C130.47,464.002 132.803,462.862 134.32,460.912L185.408,395.2C197.98,407.439 214.494,414.812 232,416C249.506,414.812 266.02,407.439 278.592,395.2L329.68,460.888C331.192,462.847 333.525,463.996 336,464C336.51,464 337.019,463.951 337.52,463.856C340.477,463.282 342.861,461.096 343.688,458.2L357.808,408.8L415.008,415.944C419.392,416.494 423.392,413.386 423.942,409.002C424.206,406.896 423.623,404.772 422.32,403.096ZM131.36,438.648L119.688,397.8C118.603,394.011 114.919,391.577 111.008,392.064L66.208,397.664L106.36,346.048L110.784,347.464C122.278,350.627 133.41,354.981 144,360.456C153.62,366.696 162.552,373.936 170.648,382.056L173.4,384.6L131.36,438.648ZM232,400C213.52,400 197.976,385.6 181.512,370.336C172.555,361.387 162.661,353.43 152,346.6C140.401,340.528 128.191,335.701 115.576,332.2C94.432,325.488 74.456,319.152 65.688,304C57.32,289.528 61.64,269.36 66.224,248C69.523,234.901 71.459,221.497 72,208C71.462,194.503 69.529,181.099 66.232,168C61.648,146.648 57.328,126.48 65.696,112C74.496,96.848 94.44,90.512 115.584,83.8C128.197,80.298 140.403,75.471 152,69.4C162.658,62.57 172.55,54.612 181.504,45.664C197.976,30.4 213.52,16 232,16C250.48,16 266.024,30.4 282.488,45.664C291.445,54.613 301.339,62.57 312,69.4C323.599,75.472 335.809,80.299 348.424,83.8C369.568,90.512 389.544,96.848 398.312,112C406.68,126.472 402.36,146.64 397.776,168C394.477,181.099 392.541,194.503 392,208C392.538,221.497 394.471,234.901 397.768,248C402.352,269.352 406.672,289.52 398.304,304C389.504,319.152 369.56,325.488 348.416,332.2C335.803,335.702 323.597,340.529 312,346.6C301.342,353.43 291.45,361.388 282.496,370.336C266.024,385.6 250.48,400 232,400ZM353.032,392.064C349.121,391.577 345.437,394.011 344.352,397.8L332.64,438.648L290.608,384.608L293.36,382.064C301.453,373.942 310.383,366.699 320,360.456C330.6,354.979 341.743,350.625 353.248,347.464L357.672,346.048L397.832,397.664L353.032,392.064Z" style="fill-rule:nonzero;"/>
                    </g>
                </g>
                <g transform="matrix(1,0,0,1,-1648.48,1472.47)">
                    <g>
                        <path d="M232,64C152.471,64 88,128.471 88,208C88,287.529 152.471,352 232,352C311.529,352 376,287.529 376,208C375.908,128.509 311.491,64.093 232,64ZM232,336C161.308,336 104,278.692 104,208C104,137.308 161.308,80 232,80C302.692,80 360,137.308 360,208C359.916,278.658 302.658,335.916 232,336Z" style="fill-rule:nonzero;"/>
                    </g>
                </g>
                <g transform="matrix(1,0,0,1,-1648.48,1472.47)">
                    <g>
                        <path d="M324.304,174.584C321.294,170.449 316.49,168.002 311.376,168L262.4,168L247.2,121.384C244.441,112.989 235.399,108.421 227.004,111.18C222.175,112.767 218.387,116.555 216.8,121.384L201.64,168L152.624,168C143.787,167.996 136.62,175.155 136.616,183.992C136.613,189.112 139.061,193.923 143.2,196.936L182.848,225.736L167.704,272.352C164.972,280.756 169.571,289.783 177.974,292.514C182.847,294.098 188.183,293.252 192.328,290.24L232,261.448L271.656,290.248C277.242,294.398 284.886,294.398 290.472,290.248C296.141,286.219 298.501,278.951 296.28,272.36L281.136,225.736L320.784,196.936C327.929,191.736 329.505,181.728 324.304,174.584ZM267.024,216.216C264.218,218.255 263.045,221.87 264.12,225.168L281.064,277.312L236.704,245.088C233.901,243.053 230.107,243.053 227.304,245.088L182.944,277.312L199.88,225.168C200.951,221.872 199.779,218.262 196.976,216.224L152.624,184L207.448,184C210.914,184 213.985,181.768 215.056,178.472L232,126.328L248.944,178.464C250.015,181.76 253.086,183.992 256.552,183.992L311.376,184L267.024,216.216Z" style="fill-rule:nonzero;"/>
                    </g>
                </g>
            </g>
        </g>
    </g>
</svg>
