<?xml version="1.0" encoding="UTF-8" standalone="no"?>
<!DOCTYPE svg PUBLIC "-//W3C//DTD SVG 1.1//EN" "http://www.w3.org/Graphics/SVG/1.1/DTD/svg11.dtd">
<svg width="100%" height="100%" viewBox="0 0 50 50" version="1.1" xmlns="http://www.w3.org/2000/svg" xmlns:xlink="http://www.w3.org/1999/xlink" xml:space="preserve" xmlns:serif="http://www.serif.com/" style="fill-rule:evenodd;clip-rule:evenodd;stroke-linejoin:round;stroke-miterlimit:2;">
    <g transform="matrix(1,0,0,1,-1256.29,-10838.5)">
        <g transform="matrix(1,0,0,1,2529.81,3789.6)">
            <g transform="matrix(0.0976562,0,0,0.0976562,-1273.51,7048.94)">
                <g>
                    <path d="M256,230.369C264.551,230.369 272.533,225.763 276.832,218.347C278.909,214.764 277.688,210.175 274.104,208.098C270.521,206.02 265.932,207.241 263.854,210.825C262.23,213.628 259.22,215.369 256,215.369C252.78,215.369 249.771,213.628 248.146,210.825C246.069,207.24 241.481,206.019 237.896,208.098C234.313,210.175 233.091,214.764 235.168,218.347C239.467,225.763 247.449,230.369 256,230.369Z" style="fill-rule:nonzero;"/>
                    <path d="M222.867,188.95C227.009,188.95 230.367,185.593 230.367,181.45L230.367,173.167C230.367,169.024 227.009,165.667 222.867,165.667C218.725,165.667 215.367,169.024 215.367,173.167L215.367,181.45C215.367,185.593 218.725,188.95 222.867,188.95Z" style="fill-rule:nonzero;"/>
                    <path d="M289.133,188.95C293.275,188.95 296.633,185.593 296.633,181.45L296.633,173.167C296.633,169.024 293.275,165.667 289.133,165.667C284.991,165.667 281.633,169.024 281.633,173.167L281.633,181.45C281.633,185.593 284.991,188.95 289.133,188.95Z" style="fill-rule:nonzero;"/>
                    <path d="M472.5,397.6L462.3,397.6L462.3,322.265C462.299,299.861 444.071,281.633 421.667,281.633L380.249,281.633C371.546,281.633 364.466,288.713 364.466,297.416L364.466,314.766L353.838,314.766C349.696,314.766 346.338,318.123 346.338,322.266C346.338,326.409 349.696,329.766 353.838,329.766L447.3,329.766L447.3,398.645C437.716,401.61 430.733,410.554 430.733,421.1L430.733,496.5C430.733,496.669 430.753,496.832 430.758,497L155.035,497C150.893,497 147.535,500.357 147.535,504.5C147.535,508.643 150.893,512 155.035,512L488.5,512C501.458,512 512,501.458 512,488.5L512,437.1C512,415.319 494.28,397.6 472.5,397.6ZM379.466,297.416C379.466,296.984 379.818,296.633 380.249,296.633L421.667,296.633C433.192,296.633 442.963,304.28 446.178,314.766L379.466,314.766L379.466,297.416ZM497,488.5C497,493.186 493.187,497 488.5,497L446.234,497C445.958,497 445.734,496.775 445.734,496.5L445.734,478.866L471.366,478.866C475.508,478.866 478.866,475.509 478.866,471.366C478.866,467.223 475.508,463.866 471.366,463.866L445.734,463.866L445.734,445.733L471.366,445.733C475.508,445.733 478.866,442.376 478.866,438.233C478.866,434.09 475.508,430.733 471.366,430.733L445.734,430.733L445.734,421.1C445.734,416.413 449.547,412.6 454.234,412.6L472.5,412.6C486.009,412.6 497,423.59 497,437.1L497,488.5Z" style="fill-rule:nonzero;"/>
                    <path d="M323.837,329.766C327.979,329.766 331.337,326.409 331.337,322.266C331.337,318.123 327.979,314.766 323.837,314.766L313.199,314.766L313.199,276.167C331.598,261.075 343.95,238.874 346.019,213.8L355.399,213.8C368.67,213.8 379.466,203.004 379.466,189.734L379.466,156.6C379.466,151.424 377.818,146.628 375.026,142.698C377.768,139.857 379.466,136.001 379.466,131.75L379.466,123.467C379.466,110.196 368.67,99.401 355.399,99.401L354.616,99.401L354.616,65.484C354.616,38.51 332.672,16.566 305.699,16.566L284.207,16.566L284.207,15.5C284.207,6.953 277.254,0 268.707,0L243.29,0C234.743,0 227.79,6.953 227.79,15.5L227.79,16.565L206.299,16.565C179.326,16.565 157.381,38.509 157.381,65.483L157.382,99.4L156.6,99.4C143.33,99.4 132.534,110.196 132.534,123.466L132.534,131.749C132.534,136 134.231,139.856 136.974,142.697C134.183,146.627 132.534,151.422 132.534,156.598L132.534,189.732C132.534,203.003 143.33,213.799 156.6,213.799L165.982,213.799C168.052,238.871 180.402,261.071 198.799,276.162L198.799,314.764L147.534,314.764L147.534,297.414C147.534,288.711 140.454,281.631 131.751,281.631L90.333,281.631C67.928,281.631 49.701,299.858 49.7,322.263L49.7,397.6L39.5,397.6C17.72,397.6 -0,415.32 -0,437.1L-0,488.5C-0,501.458 10.542,512 23.5,512L125.034,512C129.176,512 132.534,508.643 132.534,504.5C132.534,500.357 129.176,497 125.034,497L81.241,497C81.246,496.832 81.266,496.669 81.266,496.5L81.266,421.1C81.266,410.555 74.284,401.61 64.7,398.645L64.7,329.766L323.837,329.766ZM364.467,189.733C364.467,194.732 360.4,198.799 355.4,198.799L346.333,198.799L346.333,147.532L355.42,147.532C360.41,147.543 364.466,151.605 364.466,156.598L364.466,189.733L364.467,189.733ZM305.7,31.565C324.402,31.565 339.617,46.781 339.617,65.483L339.617,99.4L321.484,99.4L321.484,90.334C321.484,86.191 318.126,82.834 313.984,82.834C309.842,82.834 306.484,86.191 306.484,90.334L306.484,99.4L284.209,99.4L284.209,31.565L305.7,31.565ZM242.791,15.5C242.791,15.225 243.015,15 243.291,15L268.708,15C268.984,15 269.208,15.225 269.208,15.5L269.208,99.4L242.791,99.4L242.791,15.5ZM172.383,65.483C172.383,46.781 187.598,31.565 206.301,31.565L227.792,31.565L227.792,99.4L205.517,99.4L205.517,90.334C205.517,86.191 202.159,82.834 198.017,82.834C193.875,82.834 190.517,86.191 190.517,90.334L190.517,99.4L172.385,99.4L172.383,65.483ZM147.534,123.467C147.534,118.468 151.601,114.401 156.6,114.401L355.4,114.401C360.4,114.401 364.467,118.468 364.467,123.467L364.467,131.75C364.467,132.182 364.115,132.533 363.684,132.533L148.317,132.533C147.885,132.533 147.534,132.181 147.534,131.75L147.534,123.467ZM147.534,189.733L147.534,156.6C147.534,151.601 151.601,147.534 156.6,147.534L165.667,147.534L165.668,198.802L156.6,198.802C151.601,198.801 147.534,194.733 147.534,189.733ZM180.668,206.304L180.667,147.534L331.333,147.534L331.333,206.304C331.333,247.842 297.539,281.636 256,281.636C214.461,281.636 180.668,247.842 180.668,206.304ZM213.799,286.151C226.403,292.839 240.766,296.636 256.001,296.636C271.235,296.636 285.597,292.84 298.2,286.153L298.2,314.766L213.8,314.766L213.8,286.151L213.799,286.151ZM90.333,296.633L131.751,296.633C132.183,296.633 132.534,296.985 132.534,297.416L132.534,314.766L65.822,314.766C69.037,304.28 78.808,296.633 90.333,296.633ZM66.267,430.733L40.635,430.733C36.493,430.733 33.135,434.09 33.135,438.233C33.135,442.376 36.493,445.733 40.635,445.733L66.267,445.733L66.267,463.866L40.635,463.866C36.493,463.866 33.135,467.223 33.135,471.366C33.135,475.509 36.493,478.866 40.635,478.866L66.267,478.866L66.267,496.5C66.267,496.775 66.043,497 65.767,497L23.5,497C18.813,497 15,493.186 15,488.5L15,437.1C15,423.59 25.991,412.6 39.5,412.6L57.767,412.6C62.454,412.6 66.267,416.413 66.267,421.1L66.267,430.733Z" style="fill-rule:nonzero;"/>
                </g>
            </g>
        </g>
    </g>
</svg>
