<?xml version="1.0" standalone="no"?>
<!DOCTYPE svg PUBLIC "-//W3C//DTD SVG 1.1//EN" "http://www.w3.org/Graphics/SVG/1.1/DTD/svg11.dtd">
<svg xmlns="http://www.w3.org/2000/svg">
<metadata>Copyright (C) 2021 by original authors @ fontello.com</metadata>
<defs>
<font id="fontello" horiz-adv-x="1000" >
<font-face font-family="fontello" font-weight="400" font-stretch="normal" units-per-em="1000" ascent="850" descent="-150" />
<missing-glyph horiz-adv-x="1000" />
<glyph glyph-name="youtube" unicode="&#xe800;" d="M920 331l-322-177c-14-7-27 3-27 19l0 362c0 16 13 26 27 18l324-186c15-8 12-29-2-36z m509 208c0 171-140 311-311 311l-807 0c-172 0-311-140-311-311l0-378c0-172 139-311 311-311l807 0c171 0 311 139 311 311l0 378z" horiz-adv-x="1500" />

<glyph glyph-name="arrow-left-2" unicode="&#xe801;" d="M320 350l360 150 0-300-360 150z" horiz-adv-x="1000" />

<glyph glyph-name="arrow-right-2" unicode="&#xe803;" d="M680 350l-360-150 0 300 360-150z" horiz-adv-x="1000" />

<glyph glyph-name="left-open-mini" unicode="&#xe804;" d="M252 180q26-26 0-48-26-26-48 0l-192 194q-24 24 0 50l192 194q22 26 48 0 26-22 0-48l-156-172z" horiz-adv-x="265" />

<glyph glyph-name="right-open-mini" unicode="&#xe805;" d="M13 180l158 170-158 172q-26 26 0 48 26 26 48 0l192-194q24-26 0-50l-192-194q-22-26-48 0-26 22 0 48z" horiz-adv-x="265" />

<glyph glyph-name="arrow-top-2" unicode="&#xe806;" d="M500 170l-150 360 300 0-150-360z" horiz-adv-x="1000" />

<glyph glyph-name="gotop" unicode="&#xe807;" d="M500 850l-101-243 87 0 0-757 28 0 0 757 87 0-101 243z" horiz-adv-x="1000" />

<glyph glyph-name="fb" unicode="&#xe808;" d="M97 377l0-468c0-6 6-12 12-12l171 0c7 0 12 6 12 12l0 468 124 0c7 0 12 5 12 11l12 141c1 7-5 13-12 13l-136 0 0 100c0 24 19 43 43 43l95 0c7 0 12 5 12 12l0 141c0 6-5 12-12 12l-161 0c-95 0-172-77-172-172l0-136-85 0c-7 0-12-5-12-12l0-141c0-6 5-12 12-12l85 0z" horiz-adv-x="467" />

<glyph glyph-name="ig" unicode="&#xe809;" d="M729 680c-31 0-56-25-56-56 0-31 25-56 56-56 30 0 55 25 55 56 0 31-25 56-55 56z m-249-456c-83 0-150 67-150 150 0 83 67 150 150 150 83 0 151-67 151-150 0-83-68-150-151-150z m0 384c-129 0-234-105-234-234 0-129 105-235 234-235 130 0 235 106 235 235 0 129-105 234-235 234z m-194 152c-108 0-196-88-196-196l0-380c0-109 88-197 196-197l380 0c109 0 197 88 197 197l0 380c0 108-88 196-197 196l-380 0z m380-862l-380 0c-157 0-286 128-286 286l0 380c0 158 129 286 286 286l380 0c158 0 287-128 287-286l0-380c0-158-129-286-287-286z" horiz-adv-x="1000" />

<glyph glyph-name="dialog" unicode="&#xe80a;" d="M903 296c0-10-2-12-12-12-48 0-96 0-144 0-12-1-13 4-13 13 0 66 0 133 0 199 1 11-2 15-14 15-70-1-140-1-210-1-71 0-141 1-211 0-11 0-15 2-15 15 1 47 1 94 0 141 0 11 3 14 14 14 60-1 121-1 182-1 9 0 15 3 21 9 28 26 57 51 85 77 7 6 10 5 16 0 29-26 57-52 85-78 7-5 13-8 22-8 60 0 120 0 181 1 10 0 13-2 13-13 0-124 0-247 0-371m-619 144c0 11 3 14 13 14 123-1 245-1 368 0 10 0 12-4 12-13 0-47 0-94 0-142 0-10-3-14-14-14-61 1-122 0-183 0-61 0-121 1-182 0-10 0-14 3-14 14 1 47 1 94 0 141m378-381c-60 0-119 0-179 0-9 0-16-2-22-8-28-26-57-52-85-78-7-6-11-6-17 0-28 26-56 51-84 77-7 6-14 9-24 9-60 0-119 0-179 0-12 0-14 3-14 14 0 61 0 122 0 184 0 61 0 122 0 184 0 9 3 12 13 12 47 0 95 0 142 0 11 0 15-3 15-14-1-65 0-131-1-197 0-12 3-14 15-14 140 0 280 0 420 0 12 0 15-2 15-14 0-47 0-94 0-140 1-13-4-15-15-15m300 665c0 11-4 13-14 13-71 0-143 0-214 0-10-1-18 2-26 9-34 32-69 63-103 95-8 7-12 8-20 0-36-33-72-65-108-98-6-5-11-6-19-6-72 0-144-1-216 0-11 0-15-3-15-15 1-66 0-131 1-197 0-12-3-15-15-15-65 1-131 0-196 1-13 0-17-3-17-17 1-79 0-158 0-238 0-80 1-161 0-242 0-11 3-14 14-13 73 0 146 0 218 0 8 0 14-2 19-7 35-33 71-64 106-97 9-8 14-6 22 1 34 32 69 63 104 95 6 5 12 8 21 8 72 0 145 0 218 0 10-1 12 2 12 12 0 66 1 132 0 198 0 13 2 18 16 17 66 0 132 0 197 0 11 0 15 1 15 13-1 161-1 322 0 483m-593-326c29 0 29 0 29-29 0-29 0-29-30-29-29 0-29 0-29 29 0 29 0 29 30 29m226 0c28 0 28 0 28-28 0-30 0-30-31-30-28 0-28 0-28 28 0 30 0 30 31 30m-143-28c0 28 0 28 29 28 28 0 28 0 28-29 0-29 0-29-29-29-28 0-28 0-28 30" horiz-adv-x="962" />

<glyph glyph-name="location" unicode="&#xe80b;" d="M481 156l223 288c26 42 40 91 40 141 0 145-118 265-263 265-146 0-264-120-264-265 0-50 14-99 42-143l222-286z m0 575c80 0 146-66 146-146 0-81-66-147-146-147-81 0-147 66-147 147 0 80 66 146 147 146z m0-234c48 0 87 39 87 88 0 48-39 87-87 87-49 0-88-39-88-87 0-49 39-88 88-88z m-202-176l-112 0-52-147 365-112-201 259z m202-260l195-60 171 172-53 148-112 0-201-260z m-205 2l0-212 251 0 102 104-353 108z m593 49l-259-261 351 0-92 261z m-869-261l217 0 0 230-122 38-95-268z" horiz-adv-x="967" />

<glyph glyph-name="line" unicode="&#xe80c;" d="M833 450c15 0 27-12 27-27 0-15-12-27-27-27l-76 0 0-48 76 0c15 0 27-12 27-27 0-15-12-27-27-27l-103 0c-15 0-27 12-27 27l0 205c0 15 12 27 27 27l103 0c15 0 27-12 27-27 0-15-12-27-27-27l-76 0 0-49 76 0z m-166-129c0-12-8-22-19-26-2-1-5-1-8-1-9 0-17 4-22 10l-105 144 0-127c0-15-12-27-27-27-15 0-27 12-27 27l0 205c0 12 7 22 18 26 3 0 6 1 9 1 8 0 17-4 22-11l105-143 0 127c0 15 12 27 27 27 15 0 27-12 27-27l0-205z m-247 0c0-15-12-27-27-27-15 0-27 12-27 27l0 205c0 15 12 27 27 27 15 0 27-12 27-27l0-205z m-106-27l-103 0c-15 0-27 12-27 27l0 205c0 15 12 27 27 27 15 0 27-12 27-27l0-178 76 0c15 0 27-12 27-27 0-15-12-27-27-27m718 137c0 231-231 419-516 419-285 0-516-188-516-419 0-207 183-380 431-413 17-4 40-11 46-26 5-13 3-33 2-47 0 0-6-36-8-44-2-13-10-51 45-28 55 24 297 176 406 300l0 0c74 82 110 166 110 258" horiz-adv-x="1036" />

<glyph glyph-name="icon" unicode="&#xe80e;" d="M400 850c-261 0-400-168-400-350 0-84 47-190 123-223 11-6 17-3 20 7 2 8 12 47 17 66 2 6 1 11-4 16-25 29-45 82-45 132 0 127 101 251 273 251 149 0 253-97 253-235 0-157-83-265-190-265-59 0-104 47-90 105 17 68 51 142 51 192 0 44-26 81-77 81-60 0-110-60-110-140 0-51 19-86 19-86 0 0-60-242-71-287-19-76 2-200 4-211 1-6 8-8 11-3 6 8 79 111 99 186 7 27 38 137 38 137 20-36 77-66 138-66 183 0 315 160 315 359-1 191-164 334-374 334z" horiz-adv-x="800" />

<glyph glyph-name="arrow-left-3" unicode="&#xe80f;" d="M496-132l23 23-463 463 463 464-23 23-486-487 486-486z" horiz-adv-x="563" />

<glyph glyph-name="arrow-right-3" unicode="&#xe810;" d="M32 841l-23-23 464-463-464-464 23-23 487 487-487 486z" horiz-adv-x="563" />

<glyph glyph-name="next" unicode="&#xe811;" d="M88 850l-88-88 409-412-409-412 88-88 496 500-496 500z" horiz-adv-x="583" />

<glyph glyph-name="prev" unicode="&#xe812;" d="M496 850l87-88-409-412 409-412-87-88-496 500 496 500z" horiz-adv-x="583" />

<glyph glyph-name="least-left" unicode="&#xe813;" d="M77-119l119 0 0 938-119 0 0-938z m387 469c128-129 255-257 382-385-28-27-56-54-84-82-153 154-308 310-464 467 156 157 311 313 464 468 29-28 56-55 84-83-127-128-254-256-382-385" horiz-adv-x="923" />

<glyph glyph-name="least-right" unicode="&#xe814;" d="M846 819l-119 0 0-938 119 0 0 938z m-387-469c-128 129-255 257-381 385 27 27 55 54 83 82 153-154 308-310 464-467-156-157-311-313-464-468-28 28-56 55-84 83 127 128 254 256 382 385" horiz-adv-x="923" />

<glyph glyph-name="twitter" unicode="&#xe815;" d="M1135 738c-36-17-76-27-115-33 18 3 46 37 57 50 16 21 30 44 38 70 1 2 2 4 0 6-3 1-5 0-6-1-44-23-89-40-137-52-4-1-7 0-10 3-4 4-7 8-12 12-20 17-41 30-66 40-32 13-67 19-101 17-34-2-67-12-97-28-29-15-56-37-77-63-22-27-38-59-47-93-8-33-7-65-2-98 1-6 0-6-5-6-188 28-343 96-469 239-6 7-9 7-13 0-56-83-29-216 40-281 9-9 19-18 29-26-4-1-50 4-91 26-5 3-8 1-8-5-1-9 0-17 1-27 11-84 69-162 149-192 9-4 20-7 30-9-18-4-37-7-89-3-7 1-9-2-7-8 39-107 124-138 187-156 9-2 17-2 26-4-1-1-1-1-2-1-21-32-94-56-128-68-61-22-128-31-193-25-11 2-13 2-16 0-3-2 0-4 3-7 14-9 27-16 41-24 41-22 84-39 129-52 233-64 495-17 670 157 137 136 185 324 185 513 0 7 9 11 14 15 35 27 64 59 90 95 6 8 6 15 6 18l0 1c0 3 0 2-4 0z" horiz-adv-x="1188" />

<glyph glyph-name="mail" unicode="&#xe816;" d="M964 342l491-310 0 634-491-324z m-964 324l0-634 490 310-490 324z m1364 184l-1273 0c-45 0-81-34-88-77l724-478 725 478c-7 43-43 77-88 77z m-483-562l-129-85c-7-5-16-8-25-8-8 0-17 3-25 8l-128 85-571-361c7-44 43-77 88-77l1273 0c45 0 81 33 88 77l-571 361z" horiz-adv-x="1462" />

<glyph glyph-name="share" unicode="&#xe817;" d="M754-80c-51 0-93 42-93 93 0 52 42 93 93 93 51 0 93-41 93-93 0-51-42-93-93-93m-599 341c-51 0-93 42-93 93 0 51 42 93 93 93 51 0 93-42 93-93 0-51-42-93-93-93m599 527c51 0 93-42 93-93 0-51-42-93-93-93-51 0-93 42-93 93 0 51 42 93 93 93m0-620c-46 0-87-21-116-53l-336 192c5 15 8 30 8 47 0 17-3 33-8 48l336 192c29-33 70-54 116-54 86 0 155 70 155 155 0 86-69 155-155 155-85 0-155-69-155-155 0-17 4-32 8-48l-336-191c-28 32-70 53-116 53-85 0-155-69-155-155 0-85 70-155 155-155 46 0 88 21 116 54l337-192c-5-15-9-31-9-48 0-85 70-155 155-155 86 0 155 70 155 155 0 86-69 155-155 155" horiz-adv-x="909" />

<glyph glyph-name="logo" unicode="&#xe818;" d="M2236 524l88 0 0-88c-13-10-35-16-56-16-100 0-149 61-149 166 0 103 58 164 140 164 45 0 73-17 100-40l63 74c-36 34-90 66-167 66-142 0-259-98-259-268 0-172 114-261 260-261 74 0 138 27 175 62l0 235-195 0 0-94z m473 17l13 48c15 51 29 110 42 164l3 0c14-53 29-113 43-164l13-48-114 0z m-13 300l-166-511 122 0 33 122 162 0 33-122 127 0-167 511-144 0z m639-317l88 0 0-88c-13-10-35-16-56-16-100 0-149 61-149 166 0 103 58 164 139 164 46 0 74-17 101-40l63 74c-36 34-91 66-168 66-141 0-258-98-258-268 0-172 113-261 260-261 74 0 138 27 175 62l0 235-195 0 0-94z m671 317l0-286c0-100-34-135-94-135-59 0-92 35-92 135l0 286-120 0 0-274c0-172 75-246 212-246 138 0 210 74 210 246l0 274-116 0z m-1658-932c8 0 9 7 10 53 10-7 29-14 41-17-4-60-15-77-46-77l-29 0c-37 0-45 13-45 55l0 116-23-2c-4-84-15-143-81-178-5 11-19 29-29 37 53 26 61 69 64 135-16-2-22-4-28-7-2 9-10 33-16 45 10 3 18 12 28 28 5 7 14 21 25 41l-49 0 0 44 69 0c7 15 13 30 19 47l52-14c-5-11-10-22-15-33l96 0 0-44-119 0c-12-22-25-43-38-62l86 8c-7 11-14 21-19 31l39 16c21-30 45-70 55-97l-42-19c-3 9-8 20-13 31l-16-2 0-121c0-13 1-14 8-14l16 0z m-196 75c7-20 16-47 20-63l-34-13c-3 18-11 45-19 65l33 11z m-43-11c5-26 10-59 11-81l-36-9c-1 22-5 56-9 81l34 9z m30 13c-1 6-2 11-4 18-82-14-95-18-104-22-2 8-9 30-15 41 11 3 20 11 32 26 5 6 14 16 25 31-31-3-39-5-45-8-3 9-10 29-15 41 8 2 15 9 23 21 9 11 33 55 48 96l43-18c-15-33-36-68-57-97l27 2c11 18 22 39 31 58l40-24c-23-42-53-85-84-120l40 6c-3 11-7 21-11 29l32 13c13-26 25-58 29-79l-35-14z m-72-23c-3-35-10-72-18-95-8 4-26 10-36 12 9 23 14 58 16 89l38-6z m632 56l78 0 0 43-78 0 0-43z m179-107c33 0 39 7 44 44 12-7 33-14 46-16-8-55-24-72-87-72l-133 0c-75 0-97 15-97 69l0 148c-9-8-18-17-26-24-9 10-29 27-40 36 44 30 85 80 107 132l50-15c-6-13-13-25-21-38l215 0c0 0 0-14-1-20-3-123-7-169-18-184-9-12-18-16-30-18-11-2-28-2-47-1 0 13-5 32-13 44 14-1 26-2 33-1 6-1 10 1 13 5 7 9 10 42 13 131l-194 0c-8-10-16-20-24-29l156 0 0-125-125 0 0-40c0-22 7-26 49-26l130 0z m656 23l0-47-370 0 0 47 155 0 0 202-133 0 0 49 325 0 0-49-137 0 0-202 160 0z m505 236l-102 0 0-57 102 0 0 57z m47-96l-194 0 0 135 194 0 0-135z m19-165l0-42-235 0 0 42 98 0 0 35-78 0 0 40 78 0 0 32c-22-2-44-3-64-3-2 10-7 25-12 35 59 3 125 11 166 21l30-35c-22-5-46-9-72-13l0-37 73 0 0-40-73 0 0-35 89 0z m-249 56c-6 13-16 33-26 50l0-156-46 0 0 146c-11-33-25-63-40-85-4 14-14 35-21 47 19 25 39 67 50 105l-44 0 0 43 55 0 0 47c-13-2-26-5-38-6-2 10-8 26-13 36 42 7 88 19 118 32l26-38c-15-5-30-10-47-14l0-57 46 0 0-43-46 0 0-7c11-11 44-52 51-61l-25-39z m-2093 884l-1709 0c-30 0-54-24-54-54l0-883c0-30 24-54 54-54l574 0c8 0 13 9 8 15l-179 256-19-13c-3-2-6-1-8 1l-2 2c-29 37-82 47-121 22-20-14-34-34-38-58-5-24 0-48 14-68 2-3 2-6-1-8l-60-43c-3-1-7-1-9 2-85 122-55 290 67 376l195 137c3 2 7 1 9-2 19-27 63-26 79 12 5 13 1 27-7 39-2 3-1 6 2 8l83 58c2 2 6 1 8-1l151-216c2-3 1-6-1-8l-84-59c-2-2-6-1-8 2-19 27-63 26-79-12-5-13-1-27 7-39 2-3 1-6-2-8l-26-18 264-377 165 0 262 374c-7 15-13 31-15 47-9 49 2 98 30 139 43 61 118 91 192 75 6-1 12-6 14-12 3-7 2-14-2-20l-84-120c-2-2-2-4-2-7 1-2 2-4 4-5l57-41c4-2 9-1 12 3l85 120c4 6 10 9 17 9 7 0 13-4 17-10 13-20 21-42 26-66 8-49-3-98-31-139-39-55-103-85-170-78l-177-254c-5-6 0-15 8-15l484 0c29 0 53 24 53 54l0 883c0 30-24 54-53 54" horiz-adv-x="4122" />

<glyph glyph-name="block" unicode="&#xe81b;" d="M759 609l241 0 0 241-241 0 0-241z m-380 0l242 0 0 241-242 0 0-241z m-379 0l241 0 0 241-241 0 0-241z m759-380l241 0 0 242-241 0 0-242z m-380 0l242 0 0 242-242 0 0-242z m-379 0l241 0 0 242-241 0 0-242z m759-379l241 0 0 241-241 0 0-241z m-380 0l242 0 0 241-242 0 0-241z m-379 0l241 0 0 241-241 0 0-241z" horiz-adv-x="1000" />

<glyph glyph-name="share-2" unicode="&#xe81c;" d="M747 175c-46 0-87-21-115-53l-333 190c5 15 8 31 8 47 0 17-3 32-8 47l333 190c28-32 69-53 115-53 84 0 153 69 153 154 0 84-69 153-153 153-85 0-154-69-154-153 0-17 4-33 8-48l-333-189c-28 32-69 53-115 53-84 0-153-69-153-154 0-84 69-153 153-153 46 0 87 20 115 53l333-190c-4-15-8-31-8-47 0-85 69-154 154-154 84 0 153 69 153 154 0 84-69 153-153 153" horiz-adv-x="900" />

<glyph glyph-name="location-1" unicode="&#xe81d;" d="M469 552c0 80-65 144-144 144-79 0-144-64-144-144 0-79 65-144 144-144 79 0 144 65 144 144z m-144-504c22 29 153 209 197 269 53 72 101 144 101 235 0 165-133 298-298 298l0 0c-165 0-298-133-298-298 0-91 48-163 101-235 44-60 197-269 197-269z m-201 504c0 111 90 201 201 201 111 0 201-90 201-201 0-111-90-201-201-201-111 0-201 90-201 201z m310-451c-5-8-110-148-110-148l-108 148-132 0-84-224 650 0-84 224-132 0z" horiz-adv-x="650" />

<glyph glyph-name="360" unicode="&#xe821;" d="M839-24c-19 0-36 14-38 34-3 22 12 41 33 44 124 16 234 49 312 94 70 41 109 90 109 136 0 52-45 94-83 120-18 12-23 37-11 55 13 17 37 22 55 10 77-53 117-117 117-185 0-76-51-147-148-203-87-51-205-88-341-105-1 0-3 0-5 0z m-182 56l-104 104c-15 15-40 15-55 0-15-15-15-40 0-55l30-31c-116 13-223 40-305 79-92 45-145 101-145 155 0 46 38 94 107 135 18 11 25 35 14 53-11 19-35 25-54 14-120-71-145-149-145-202 0-86 67-166 190-225 94-46 217-76 351-88l-43-43c-15-16-15-40 0-56 7-7 17-11 27-11 10 0 20 4 28 11l104 105c15 15 15 40 0 55z m-248 331l0 9c0 33-20 40-47 40-17 0-23 14-23 29 0 15 6 30 23 30 18 0 38 2 38 42 0 29-16 36-36 36-25 0-37-6-37-25 0-17-7-28-36-28-36 0-40 7-40 31 0 38 28 88 113 88 62 0 110-22 110-89 0-36-13-70-38-81 29-11 50-33 50-73l0-9c0-82-56-112-125-112-85 0-118 52-118 93 0 22 10 28 37 28 32 0 40-7 40-25 0-24 21-29 44-29 33 0 45 12 45 45z m378 9l0-5c0-85-53-116-122-116-68 0-121 31-121 116l0 132c0 85 55 116 126 116 84 0 117-52 117-93 0-23-12-31-36-31-22 0-41 6-41 28 0 19-19 29-43 29-29 0-46-15-46-49l0-45c16 17 38 22 62 22 56 0 104-25 104-104z m-166-10c0-34 17-49 44-49 28 0 44 15 44 49l0 4c0 37-16 50-44 50-27 0-44-12-44-45l0-9z m226 5l0 132c0 85 52 116 121 116 68 0 121-31 121-116l0-132c0-85-53-116-121-116-69 0-121 31-121 116z m165 132c0 34-17 49-44 49-28 0-44-15-44-49l0-132c0-34 16-49 44-49 27 0 44 15 44 49l0 132z m171 117c-64 0-117 52-117 117 0 65 53 117 117 117 65 0 117-52 117-117 0-65-52-117-117-117z m0 156c-21 0-39-18-39-39 0-22 18-39 39-39 22 0 39 17 39 39 0 21-17 39-39 39z" horiz-adv-x="1333" />

<glyph glyph-name="arrow-left" unicode="&#xe826;" d="M171 245l0 57 829 0 0 29-829 0 0 57-171-71 171-72z" horiz-adv-x="1000" />

<glyph glyph-name="arrow-right" unicode="&#xe827;" d="M829 388l0-57-829 0 0-29 829 0 0-57 171 72-171 71z" horiz-adv-x="1000" />

<glyph glyph-name="close" unicode="&#xe828;" d="M903 851l-428-428-428 428-47-48 428-428-428-428 47-47 428 428 428-428 47 47-428 428 428 428-47 48z" horiz-adv-x="1000" />
</font>
</defs>
</svg>
